<?xml version="1.0" standalone="no"?>
<!DOCTYPE svg PUBLIC "-//W3C//DTD SVG 20010904//EN"
 "http://www.w3.org/TR/2001/REC-SVG-20010904/DTD/svg10.dtd">
<svg version="1.0" xmlns="http://www.w3.org/2000/svg"
 width="630.000000pt" height="630.000000pt" viewBox="0 0 630.000000 630.000000"
 preserveAspectRatio="xMidYMid meet">
<metadata>
Created by potrace 1.14, written by Peter Selinger 2001-2017
</metadata>
<g transform="translate(0.000000,630.000000) scale(0.100000,-0.100000)"
fill="#000000" stroke="none">
<path d="M0 3150 l0 -3150 359 0 359 0 16 42 c8 24 29 90 46 148 42 141 46
150 103 265 27 55 65 145 84 199 19 55 38 107 44 117 5 10 20 57 33 106 14 48
37 131 51 183 22 77 27 117 28 210 0 63 4 103 7 89 4 -14 13 -36 20 -49 7 -14
14 -40 16 -58 1 -19 10 -42 20 -53 9 -10 13 -19 7 -19 -5 0 -10 -6 -10 -14 0
-8 3 -15 6 -14 19 2 19 -4 -1 -24 -13 -13 -17 -23 -10 -26 6 -2 8 -10 5 -19
-4 -11 -2 -14 5 -9 7 4 12 17 13 29 0 12 3 16 6 10 3 -9 15 -5 41 12 20 13 38
23 40 21 2 -2 -6 -23 -18 -46 -12 -23 -19 -44 -16 -47 2 -3 14 17 26 44 36 83
119 223 157 262 14 14 43 53 65 86 54 80 95 123 140 146 61 31 158 20 158 -18
0 -10 -22 -54 -49 -98 -28 -44 -76 -124 -108 -178 -53 -90 -61 -98 -98 -108
-53 -14 -115 -43 -140 -65 -29 -27 -109 -133 -129 -172 -27 -52 -86 -195 -86
-207 0 -21 46 -55 96 -71 68 -22 301 -28 339 -8 39 20 45 18 32 -11 -8 -16
-18 -24 -29 -21 -11 2 -15 -1 -11 -10 2 -7 12 -15 21 -17 15 -4 15 -5 0 -6
-15 -1 -17 -10 -13 -68 4 -73 -9 -119 -36 -126 -10 -3 -16 -15 -16 -32 0 -15
-8 -32 -17 -37 -9 -5 -16 -15 -16 -22 0 -7 -12 -22 -26 -32 -14 -10 -30 -29
-35 -42 -5 -12 -12 -22 -16 -21 -23 4 -31 -3 -25 -23 3 -12 1 -19 -4 -15 -6 3
-16 2 -24 -4 -12 -7 -9 -9 10 -10 17 -1 20 -3 7 -6 -9 -2 -15 -9 -11 -14 3 -5
2 -9 -3 -8 -21 4 -33 -2 -33 -16 0 -8 -4 -15 -10 -15 -5 0 -10 -6 -10 -14 0
-8 -12 -16 -27 -18 l-28 -4 25 -11 c18 -9 20 -12 8 -12 -10 -1 -18 -5 -18 -10
0 -5 -16 -12 -35 -15 -20 -4 -33 -11 -30 -17 4 -6 133 -9 335 -9 308 1 329 2
345 20 16 18 16 19 -2 31 -14 8 -18 20 -15 41 3 22 7 27 14 17 6 -10 7 -7 3 9
-7 23 9 32 18 10 4 -10 6 -10 6 0 1 8 -8 16 -19 19 -15 4 -19 13 -18 39 1 18
5 31 11 27 5 -3 7 -16 4 -29 -2 -13 -1 -24 3 -24 11 0 20 54 9 58 -5 2 -9 18
-8 35 1 28 2 29 7 9 7 -21 8 -22 27 -7 19 14 19 15 1 8 -16 -5 -18 -3 -13 11
4 10 7 22 7 27 0 4 7 5 17 2 11 -4 14 -3 9 5 -4 7 -3 12 3 12 5 0 13 -4 16
-10 9 -15 22 -12 29 6 5 13 4 14 -7 6 -8 -7 -17 -9 -20 -5 -12 11 -8 23 8 23
8 0 15 5 15 11 0 7 -9 9 -22 5 -36 -11 -64 -17 -50 -10 6 3 10 10 7 15 -4 5 1
6 9 3 11 -4 16 0 16 12 0 16 2 16 10 4 5 -8 12 -11 16 -7 4 4 -1 17 -12 29
-16 18 -17 21 -2 15 9 -3 19 -3 21 1 2 4 3 2 1 -4 -1 -6 2 -17 7 -25 7 -11 9
-9 9 9 0 13 6 22 16 22 9 0 14 6 11 13 -2 6 -10 11 -16 10 -20 -5 -11 19 9 24
22 6 22 30 1 25 -7 -1 -9 3 -6 9 4 6 18 9 32 6 29 -5 26 13 -5 29 -13 6 -26
15 -30 19 -4 5 -1 5 6 1 8 -5 12 -1 12 11 0 12 3 14 8 6 10 -16 62 -28 62 -14
0 10 -13 15 -35 12 -5 -1 -1 6 9 14 11 8 25 15 30 15 6 0 5 -4 -2 -9 -11 -7
-10 -10 3 -15 24 -9 27 -8 19 6 -5 8 -2 9 10 5 9 -4 14 -3 11 2 -3 5 0 11 7
14 7 2 5 3 -4 2 -10 -2 -18 1 -18 6 0 5 -10 8 -23 6 -12 -2 -16 -2 -10 0 7 3
13 9 13 14 0 6 -3 8 -8 5 -4 -2 -16 2 -27 10 -18 13 -18 14 -1 27 10 8 33 12
50 10 79 -9 91 -8 88 6 -2 9 4 12 18 8 11 -3 23 -1 26 4 3 5 -2 9 -10 9 -10 0
-16 9 -16 26 0 14 -4 23 -10 19 -5 -3 -10 -14 -10 -24 0 -10 -7 -24 -15 -31
-10 -9 -15 -9 -15 -1 0 6 -9 11 -21 11 -15 0 -19 5 -15 15 3 8 0 15 -7 15 -8
0 -8 3 2 9 10 6 21 1 38 -18 l24 -26 -2 25 c-2 41 0 45 25 45 13 0 22 -3 20
-7 -5 -7 2 -18 34 -53 9 -10 10 -15 2 -15 -6 0 -8 -4 -5 -10 3 -5 0 -10 -8
-10 -7 0 -14 -6 -14 -13 0 -7 8 -13 17 -13 9 0 17 7 16 15 -1 8 14 23 33 32
24 11 30 18 21 24 -7 4 -16 2 -21 -6 -13 -21 -44 3 -43 32 1 13 -3 27 -8 30
-7 4 -6 9 1 13 6 4 12 1 13 -6 0 -7 2 -17 2 -23 3 -21 17 -34 31 -28 8 3 15
10 15 15 0 6 -6 5 -15 -2 -9 -8 -15 -8 -15 -2 0 6 12 20 26 31 15 11 24 27 21
34 -3 7 1 21 9 32 8 10 14 15 14 10 0 -5 6 -1 13 9 13 18 14 18 32 0 13 -13
20 -15 23 -6 2 7 8 10 13 6 5 -3 9 2 9 11 0 9 4 14 10 10 5 -3 6 -13 3 -22 -5
-12 -3 -14 8 -8 8 5 11 5 6 -1 -5 -5 -14 -9 -20 -9 -7 0 -11 -8 -9 -18 2 -9
-2 -17 -8 -17 -5 0 -10 -12 -10 -26 0 -19 4 -25 15 -20 17 6 20 -9 4 -20 -6
-3 -15 0 -20 7 -12 20 -11 69 2 69 5 0 7 5 4 10 -5 8 -12 7 -23 -2 -13 -11
-15 -11 -10 4 4 9 1 19 -7 22 -11 4 -14 -4 -12 -32 2 -30 -1 -36 -15 -34 -12
2 -16 -2 -12 -13 3 -8 2 -15 -4 -15 -6 0 -12 6 -15 13 -2 6 -4 0 -3 -15 0 -15
7 -30 15 -33 11 -4 10 -10 -3 -30 -10 -16 -12 -25 -5 -25 6 0 9 -7 5 -15 -3
-8 -3 -15 -1 -15 8 0 45 44 45 54 0 5 -6 1 -14 -10 -23 -30 -26 -13 -6 28 18
38 15 49 -8 26 -7 -7 -12 -8 -12 -3 0 6 13 22 28 37 l28 28 -2 -34 c-2 -18 -4
-37 -5 -42 -4 -23 2 -33 18 -27 12 5 14 3 8 -7 -6 -9 -4 -12 6 -8 10 4 15 -1
15 -13 0 -11 -4 -19 -9 -19 -5 0 -15 -7 -23 -15 -20 -20 -5 -19 24 1 12 8 22
22 22 31 0 11 6 14 21 10 13 -3 19 -1 16 6 -2 7 -15 12 -29 13 -14 1 -30 4
-37 8 -12 8 -15 27 -3 25 16 -2 52 14 52 24 0 6 3 7 7 4 3 -4 -1 -15 -10 -25
-15 -16 -15 -18 1 -19 9 -1 27 -4 40 -8 18 -6 22 -4 22 16 l0 24 13 -25 c13
-24 3 -45 -15 -34 -4 3 -8 0 -8 -6 0 -7 7 -10 15 -6 12 4 14 -1 10 -24 -3 -18
-1 -30 5 -30 6 0 8 -4 5 -10 -3 -5 3 -10 15 -10 12 0 18 4 15 10 -3 5 -1 10 4
10 6 0 11 -7 11 -16 0 -8 5 -12 10 -9 6 4 8 11 5 16 -4 5 -2 9 4 9 5 0 12 -6
15 -12 3 -7 4 -1 1 13 -3 19 2 32 17 45 19 16 21 16 9 1 -8 -9 -11 -20 -8 -23
12 -13 -16 -64 -39 -70 -26 -7 -31 -23 -11 -43 10 -11 9 -13 -5 -8 -13 5 -18
1 -18 -13 0 -13 5 -18 15 -14 12 5 14 2 8 -12 -6 -17 -5 -17 10 -5 9 7 17 24
17 38 0 14 4 21 10 18 6 -3 10 -1 10 5 0 7 -8 9 -19 5 -11 -3 -22 -2 -25 3 -3
5 8 12 24 16 17 3 30 11 30 18 0 7 6 25 14 39 10 21 23 57 31 89 0 3 6 14 12
26 7 11 14 32 17 45 3 13 14 48 26 78 12 30 19 60 16 67 -3 7 2 15 10 18 8 3
14 14 14 25 0 11 4 22 9 25 4 3 14 27 21 53 12 48 33 103 50 135 6 10 10 26
10 36 0 10 20 59 44 108 24 49 51 107 61 129 21 47 74 155 139 279 25 49 46
95 46 102 0 7 9 28 19 46 11 18 49 114 86 213 37 99 81 205 99 235 17 30 37
67 45 81 18 36 129 145 137 136 4 -4 -9 -44 -28 -90 -44 -99 -84 -234 -92
-301 -5 -42 -4 -47 7 -30 7 10 21 44 31 74 33 97 69 185 79 191 5 4 6 12 3 18
-4 6 -2 11 4 11 7 0 10 5 8 12 -3 7 13 46 34 86 21 41 38 81 38 88 0 7 9 33
19 56 44 98 58 135 65 168 6 32 6 33 -9 15 -16 -20 -16 -19 -6 1 8 17 7 25 -6
35 -15 12 -16 12 -10 -3 7 -20 -8 -34 -19 -17 -5 8 -3 9 7 4 8 -5 11 -4 6 0
-4 5 -17 10 -29 12 -12 2 -25 8 -29 14 -4 8 -9 7 -13 -2 -5 -11 -7 -11 -12 -1
-3 6 -11 12 -17 12 -8 0 -8 -3 0 -11 6 -6 9 -19 5 -28 -5 -14 -3 -14 10 -3 12
9 18 10 23 2 5 -8 10 -8 20 0 10 9 16 7 24 -9 12 -22 -1 -37 -20 -25 -6 3 -16
0 -21 -7 -8 -11 -9 -10 -4 4 3 11 0 17 -10 17 -11 0 -13 -6 -9 -21 5 -15 4
-19 -4 -15 -6 4 -11 16 -11 28 0 11 -8 22 -19 25 -17 4 -18 7 -5 31 11 22 11
27 -4 38 -9 7 -19 9 -22 6 -3 -4 -9 -10 -13 -13 -4 -3 -1 -12 8 -19 13 -11 14
-10 9 4 -3 9 -1 16 5 16 19 0 12 -31 -11 -51 -13 -10 -32 -18 -43 -18 -15 0
-14 3 8 11 31 11 34 20 12 38 -12 10 -13 15 -3 28 11 13 10 14 -2 10 -8 -2
-15 -16 -15 -31 -1 -14 -4 -29 -7 -33 -8 -7 -8 29 -2 64 3 14 9 20 16 16 7 -4
8 -3 4 5 -13 20 -36 -7 -37 -43 -1 -25 -3 -26 -6 -8 -3 16 -9 22 -20 18 -12
-5 -13 -4 -5 7 7 8 9 16 6 20 -3 3 -1 14 5 25 6 12 7 30 1 48 l-9 29 1 -30 c1
-39 -19 -88 -32 -80 -8 5 -8 11 -1 19 6 7 8 16 4 19 -3 4 -1 7 5 7 20 0 13 17
-9 23 -13 4 -19 12 -18 24 5 24 -9 43 -25 37 -8 -3 -17 -1 -21 5 -10 17 -25
13 -19 -4 4 -8 1 -15 -6 -15 -7 0 -10 -8 -7 -20 6 -24 -8 -27 -17 -3 -4 9 -2
21 4 27 16 16 12 23 -21 35 -41 14 -39 15 -40 -16 -2 -26 -2 -27 -6 -4 -4 19
-7 21 -14 10 -8 -11 -10 -10 -8 6 2 34 0 38 -16 25 -19 -15 -32 -6 -18 12 8 9
5 19 -8 32 -19 19 -19 19 -13 -14 5 -23 4 -31 -4 -26 -6 4 -9 13 -5 21 3 8 0
15 -7 15 -6 0 -8 5 -4 12 5 8 2 9 -9 5 -13 -5 -16 -1 -14 15 1 11 -4 23 -12
26 -9 3 -11 0 -7 -9 4 -8 -1 -3 -12 10 -11 13 -21 20 -24 15 -3 -5 -3 -3 -2 4
5 19 -7 43 -18 36 -5 -4 -8 4 -6 16 2 13 -3 25 -11 28 -10 3 -12 0 -8 -12 11
-27 -1 -18 -17 14 -8 16 -10 30 -5 30 5 0 9 7 9 15 0 8 -5 15 -11 15 -5 0 -7
-4 -4 -10 3 -6 1 -10 -4 -10 -18 0 -12 21 12 41 12 10 17 18 10 19 -6 0 -14
-6 -16 -12 -3 -8 -6 -6 -6 5 -1 9 -8 17 -17 17 -9 0 -12 5 -8 12 5 7 3 8 -6 3
-10 -6 -9 -11 4 -21 13 -9 15 -17 8 -30 -9 -16 -10 -15 -16 4 -4 12 -11 22
-15 22 -8 0 -36 64 -32 75 1 3 -11 17 -25 30 -15 14 -25 25 -22 25 3 0 -9 16
-28 37 -18 20 -31 40 -28 45 3 4 1 8 -4 8 -12 0 -165 151 -187 184 -10 14 -24
26 -31 26 -8 0 -14 7 -14 15 0 8 -5 15 -10 15 -6 0 -27 18 -49 40 -38 39 -59
52 -45 28 4 -7 -2 -5 -14 6 -12 10 -24 27 -28 38 -4 13 -12 18 -24 15 -14 -3
-17 -1 -13 11 5 12 1 14 -23 9 -16 -3 -23 -4 -16 -1 6 3 12 10 12 15 0 6 -4 8
-10 4 -5 -3 -24 11 -42 30 -23 26 -39 35 -55 32 -12 -2 -20 -1 -18 4 10 15
-13 18 -26 3 -10 -13 -10 -17 0 -24 11 -6 11 -11 -1 -28 -14 -20 -14 -20 -26
-2 -10 17 -9 18 6 13 13 -5 14 -3 5 7 -6 7 -10 18 -9 24 2 6 1 8 -1 4 -9 -15
-33 -8 -34 10 0 14 -2 14 -9 -3 -5 -11 -9 -15 -9 -10 -1 6 -10 -5 -21 -22 -11
-18 -24 -33 -30 -33 -6 0 -4 10 5 23 8 13 12 27 8 30 -9 10 -33 -13 -33 -31 0
-13 -3 -12 -16 4 -15 19 -15 19 -10 -1 5 -16 1 -21 -14 -21 -14 0 -19 5 -15
16 3 9 0 8 -10 -4 -11 -15 -18 -16 -28 -8 -10 9 -17 8 -26 -1 -9 -9 -14 -9
-21 2 -6 11 -12 12 -22 3 -11 -9 -17 -9 -26 0 -8 8 -19 3 -41 -20 -31 -34 -47
-41 -38 -18 4 10 -3 14 -28 14 -20 0 -36 -6 -39 -14 -8 -22 -26 -16 -27 9 -1
16 -2 18 -6 5 -2 -10 -8 -18 -13 -18 -4 0 -11 -10 -15 -22 -3 -13 -9 -18 -11
-12 -6 13 -63 -3 -76 -21 -13 -17 -9 -27 7 -21 8 3 15 1 15 -3 0 -5 -6 -11
-14 -14 -28 -11 -29 47 -2 65 7 5 4 8 -6 8 -9 0 -18 8 -21 18 -4 15 -5 15 -12
-3 -14 -32 -37 -54 -51 -48 -8 3 -14 9 -14 15 0 5 4 7 9 4 10 -7 23 19 14 28
-10 9 -25 7 -19 -3 3 -5 -1 -14 -9 -21 -8 -7 -13 -16 -10 -20 3 -5 0 -12 -6
-16 -8 -5 -10 1 -7 18 2 13 -1 29 -8 36 -17 15 -25 15 -22 0 2 -7 -3 -12 -10
-10 -8 1 -11 -2 -8 -7 4 -5 1 -13 -5 -16 -14 -9 39 -45 56 -38 7 2 15 1 18 -4
3 -5 -13 -9 -36 -9 -26 0 -41 -4 -40 -12 2 -7 -4 -9 -15 -5 -14 5 -15 3 -4 -8
18 -20 14 -31 -7 -19 -13 7 -22 7 -26 0 -3 -5 -14 -10 -25 -10 -15 0 -17 -6
-14 -40 2 -22 0 -40 -4 -40 -4 0 -8 -9 -9 -20 -2 -20 -50 -69 -68 -70 -5 0 -3
5 5 10 12 7 8 10 -14 10 -37 0 -28 10 10 13 22 2 33 11 46 37 21 43 22 56 5
41 -8 -6 -17 -8 -20 -4 -4 3 -7 -8 -7 -25 0 -18 -5 -32 -11 -32 -5 0 -7 5 -4
10 14 23 -15 7 -39 -21 -14 -17 -26 -27 -26 -22 -1 4 -8 -4 -16 -20 -8 -15
-12 -32 -9 -37 3 -6 1 -10 -4 -10 -6 0 -11 -6 -11 -12 0 -7 -7 -26 -16 -43 -8
-16 -20 -50 -25 -75 -20 -94 -53 -91 -37 3 5 29 9 64 10 79 0 15 4 26 7 24 3
-2 6 8 7 22 4 137 55 392 108 552 44 129 104 218 236 351 118 118 146 135 241
151 59 10 70 10 94 -6 34 -22 42 -14 27 27 -7 19 -12 42 -12 53 0 11 -4 24 -8
29 -18 20 -51 133 -62 210 -29 206 -48 321 -70 420 -11 50 -14 223 -5 303 8
70 43 178 75 232 5 8 23 38 39 65 52 88 139 168 229 211 44 22 81 42 81 47 1
4 -476 7 -1059 7 l-1060 0 0 -3150z m2370 926 c0 -11 -19 -15 -25 -6 -3 5 1
10 9 10 9 0 16 -2 16 -4z m-370 -46 c0 -5 -5 -10 -11 -10 -5 0 -7 5 -4 10 3 6
8 10 11 10 2 0 4 -4 4 -10z m1277 -972 c-3 -8 -6 -5 -6 6 -1 11 2 17 5 13 3
-3 4 -12 1 -19z m73 -3 c11 -13 10 -14 -4 -9 -9 3 -16 10 -16 15 0 13 6 11 20
-6z m101 -9 c-10 -11 -7 -17 10 -30 13 -8 19 -19 15 -23 -4 -4 -13 0 -20 9 -7
10 -17 14 -21 10 -5 -4 -5 -1 -1 6 4 7 1 12 -8 12 -17 0 -21 12 -9 23 3 4 15
7 26 7 16 0 17 -3 8 -14z m-1136 -44 c49 -8 95 -30 95 -44 0 -5 6 -8 13 -8 7
0 19 -9 27 -19 7 -11 18 -17 23 -14 19 12 136 -123 129 -149 -1 -5 4 -8 10 -8
9 0 8 -4 -2 -10 -13 -8 -12 -10 3 -10 9 0 17 -5 17 -11 0 -13 -122 -6 -215 11
-27 5 -111 14 -185 20 -74 6 -162 15 -195 20 -33 6 -80 12 -105 15 -25 3 -76
9 -115 14 -38 4 -90 7 -114 6 -50 -3 -87 19 -60 36 8 5 10 9 6 9 -10 0 8 23
56 72 21 21 42 36 46 33 5 -2 41 5 82 17 94 27 239 29 264 4 21 -21 23 -21 70
9 28 18 49 24 70 21 17 -3 53 -9 80 -14z m1154 -28 c2 -2 -2 -4 -10 -4 -8 0
-25 10 -39 21 l-25 20 35 -17 c19 -9 37 -18 39 -20z m151 -153 c-4 -16 -5 -33
-2 -37 4 -4 2 -4 -5 0 -6 3 -10 19 -9 34 4 33 4 32 15 32 6 0 6 -12 1 -29z
m33 0 c3 -14 1 -18 -9 -14 -15 6 -18 16 -7 26 9 10 10 9 16 -12z m-2533 -141
c15 -52 35 -135 45 -185 9 -49 25 -108 34 -130 40 -92 33 -128 -34 -159 -58
-28 -62 -21 -70 142 -3 81 -11 188 -16 237 -11 110 -12 219 -1 229 4 4 8 -3
10 -16 2 -12 16 -66 32 -118z m497 108 c-3 -7 -5 -2 -5 12 0 14 2 19 5 13 2
-7 2 -19 0 -25z m2060 -30 c-3 -7 -5 -2 -5 12 0 14 2 19 5 13 2 -7 2 -19 0
-25z m40 10 c-3 -8 -6 -5 -6 6 -1 11 2 17 5 13 3 -3 4 -12 1 -19z m-72 -8 c-3
-5 -12 -10 -18 -10 -7 0 -6 4 3 10 19 12 23 12 15 0z m28 -155 c-3 -9 -8 -14
-10 -11 -3 3 -2 9 2 15 9 16 15 13 8 -4z m-2589 -500 c3 -9 0 -15 -9 -15 -7 0
-16 -13 -20 -30 -4 -16 -11 -30 -16 -30 -5 0 -9 -7 -9 -15 0 -8 -4 -15 -10
-15 -5 0 -10 -15 -11 -32 l-1 -33 -13 30 c-8 17 -14 23 -15 13 0 -9 -5 -18
-11 -20 -7 -2 -7 -12 0 -30 7 -19 7 -28 -1 -30 -7 -3 -12 -33 -12 -76 -1 -42
-5 -71 -11 -69 -27 9 -29 184 -2 215 8 9 19 31 24 47 5 17 16 30 24 30 8 0 15
10 17 23 2 16 8 22 18 18 8 -3 20 3 26 14 15 24 24 25 32 5z m147 -63 c10 -54
4 -96 -12 -87 -5 4 -9 2 -9 -4 0 -5 -3 -18 -6 -28 -5 -14 -4 -15 4 -4 8 12 13
12 25 2 15 -12 12 -55 -4 -46 -4 3 -6 13 -3 23 3 9 -4 5 -16 -10 -22 -29 -40
-36 -40 -17 0 5 4 8 9 5 5 -3 11 1 15 9 3 8 1 15 -4 15 -5 0 -3 21 5 48 18 56
18 65 5 57 -12 -8 -41 -72 -44 -100 -3 -28 -23 -61 -32 -53 -4 5 -13 3 -21 -4
-12 -9 -13 -3 -9 39 5 52 35 133 48 133 5 0 8 6 8 13 0 31 76 39 81 9z m264 1
c-3 -16 -2 -22 1 -15 8 17 24 15 24 -3 0 -8 4 -15 10 -15 5 0 6 -7 3 -17 -5
-12 -3 -14 7 -8 8 5 11 3 8 -6 -3 -8 -18 -14 -36 -13 -21 0 -32 -5 -32 -14 0
-7 4 -11 8 -8 4 2 14 1 21 -4 19 -11 3 -33 -20 -27 -12 3 -19 0 -19 -9 0 -8
-5 -14 -10 -14 -6 0 -8 -12 -4 -27 4 -20 3 -24 -4 -14 -8 11 -11 10 -14 -5 -3
-10 -4 23 -3 74 1 89 2 94 31 122 36 36 35 36 29 3z m131 11 c-4 -10 -2 -13 7
-7 6 4 23 9 37 10 l25 3 -25 -15 -25 -14 28 -1 c16 0 30 7 33 15 9 23 26 18
19 -5 -4 -12 -2 -27 4 -34 15 -18 -12 -32 -66 -35 -13 0 -23 -5 -23 -10 0 -5
10 -11 23 -13 15 -2 22 -10 23 -25 1 -19 -2 -21 -17 -12 -17 9 -18 7 -9 -16
13 -34 13 -35 -5 -29 -8 4 -15 15 -15 25 0 10 -6 19 -14 19 -10 0 -13 -7 -11
-20 2 -11 -3 -35 -11 -53 -13 -30 -14 -27 -9 61 4 89 20 172 31 172 4 0 3 -7
0 -16z m-298 -36 c2 -9 -3 -22 -11 -29 -8 -8 -12 -20 -10 -29 2 -8 -1 -21 -6
-29 -8 -12 -12 -12 -25 -2 -23 20 -19 42 17 99 11 16 31 10 35 -10z m97 -5
c-8 -19 -13 -45 -14 -75 -1 -10 -9 -18 -18 -18 -13 0 -14 -3 -5 -12 7 -7 12
-16 12 -22 0 -5 -3 -7 -6 -3 -3 3 -16 2 -29 -3 -20 -8 -23 -6 -21 13 3 22 40
101 58 125 15 18 31 15 23 -5z m426 -23 c4 -3 0 -11 -11 -18 -17 -10 -18 -9
-16 16 6 43 8 48 13 27 3 -11 9 -22 14 -25z m-68 -10 c-3 -11 -9 -20 -13 -20
-5 0 -6 10 -2 22 3 14 2 19 -6 14 -7 -4 -12 -1 -12 9 0 12 4 14 19 5 13 -6 17
-17 14 -30z m97 20 c0 -5 -7 -7 -15 -4 -8 4 -12 10 -9 15 6 11 24 2 24 -11z
m-828 -22 c-8 -8 -9 -4 -5 13 4 13 8 18 11 10 2 -7 -1 -18 -6 -23z m1033 -18
c4 -22 6 -43 5 -46 -1 -4 4 -11 12 -15 9 -6 10 -9 1 -9 -8 0 -10 -7 -6 -17 6
-16 5 -16 -10 -4 -9 7 -17 10 -17 5 0 -5 -5 -2 -10 6 -11 17 -14 113 -4 123
12 12 22 -3 29 -43z m-338 0 c12 -18 0 -40 -14 -26 -4 3 0 6 7 6 9 0 8 6 -5
20 -10 11 -14 20 -9 20 5 0 15 -9 21 -20z m-32 -29 c3 -5 1 -12 -5 -16 -5 -3
-10 1 -10 9 0 18 6 21 15 7z m-718 -23 c-3 -8 -6 -5 -6 6 -1 11 2 17 5 13 3
-3 4 -12 1 -19z m-20 -40 c-3 -8 -6 -5 -6 6 -1 11 2 17 5 13 3 -3 4 -12 1 -19z
m1933 -618 c0 -5 -8 -10 -17 -10 -15 0 -16 2 -3 10 19 12 20 12 20 0z m-85
-150 c3 -5 1 -10 -4 -10 -6 0 -11 5 -11 10 0 6 2 10 4 10 3 0 8 -4 11 -10z
m-28 -32 c-3 -8 -6 -5 -6 6 -1 11 2 17 5 13 3 -3 4 -12 1 -19z m-317 -15 c0
-10 -4 -14 -8 -8 -4 6 -11 13 -16 18 -5 4 -2 7 7 7 10 0 17 -8 17 -17z m-98
-25 c-6 -6 -15 -8 -19 -4 -4 4 -1 11 7 16 19 12 27 3 12 -12z m328 18 c0 -3
-4 -8 -10 -11 -5 -3 -10 -1 -10 4 0 6 5 11 10 11 6 0 10 -2 10 -4z m70 0 c0
-3 -4 -8 -10 -11 -5 -3 -10 -1 -10 4 0 6 5 11 10 11 6 0 10 -2 10 -4z m-228
-23 c-6 -3 -9 -10 -6 -15 4 -7 2 -8 -5 -4 -9 6 -9 11 0 22 6 8 15 12 18 8 3
-4 0 -9 -7 -11z m168 -18 c0 -2 -6 -5 -13 -8 -8 -3 -14 1 -14 8 0 7 6 11 14 8
7 -3 13 -6 13 -8z m-280 -5 c0 -5 -2 -10 -4 -10 -3 0 -8 5 -11 10 -3 6 -1 10
4 10 6 0 11 -4 11 -10z m160 0 c0 -5 -2 -10 -4 -10 -3 0 -8 5 -11 10 -3 6 -1
10 4 10 6 0 11 -4 11 -10z m-275 -20 c-3 -5 -12 -10 -18 -10 -7 0 -6 4 3 10
19 12 23 12 15 0z m400 0 c-3 -5 -11 -10 -16 -10 -6 0 -7 5 -4 10 3 6 11 10
16 10 6 0 7 -4 4 -10z m-215 -14 c0 -2 -7 -6 -15 -10 -8 -3 -15 -1 -15 4 0 6
7 10 15 10 8 0 15 -2 15 -4z m180 -6 c0 -5 -4 -10 -10 -10 -5 0 -10 5 -10 10
0 6 5 10 10 10 6 0 10 -4 10 -10z m68 -2 c-3 -7 -15 -15 -28 -18 -21 -5 -22
-6 -5 -20 14 -12 19 -12 22 -2 3 6 11 12 19 12 9 0 12 5 8 12 -5 7 -3 8 6 3
17 -11 -28 -47 -52 -41 -9 2 -19 -1 -22 -8 -3 -6 -3 -1 0 12 4 16 1 22 -13 23
-12 0 -9 4 10 11 15 5 27 14 27 19 0 5 7 9 16 9 9 0 14 -6 12 -12z m-328 -28
c-27 -21 -40 -25 -40 -11 0 5 11 12 25 15 14 4 25 12 25 18 0 6 3 8 7 4 4 -4
-3 -16 -17 -26z m210 20 c0 -5 -2 -10 -4 -10 -3 0 -8 5 -11 10 -3 6 -1 10 4
10 6 0 11 -4 11 -10z m-270 -10 c0 -5 -5 -10 -11 -10 -5 0 -7 5 -4 10 3 6 8
10 11 10 2 0 4 -4 4 -10z m200 -10 c0 -5 -8 -10 -17 -10 -15 0 -16 2 -3 10 19
12 20 12 20 0z m-283 -6 c-3 -3 -12 -4 -19 -1 -8 3 -5 6 6 6 11 1 17 -2 13 -5z
m195 -11 c4 -15 -2 -18 -29 -18 -18 0 -33 1 -33 2 0 2 50 31 56 33 1 0 4 -8 6
-17z m205 -19 c2 -13 1 -15 -4 -4 -3 8 -11 19 -17 23 -7 6 -6 7 4 4 8 -2 16
-12 17 -23z m-413 1 c-10 -8 -23 -14 -29 -14 -5 0 -1 6 9 14 11 8 24 15 30 15
5 0 1 -7 -10 -15z m86 0 c-7 -9 -10 -19 -6 -22 4 -4 11 -1 16 7 7 12 9 11 8
-5 -1 -11 2 -33 6 -48 4 -19 3 -26 -4 -22 -5 3 -10 15 -10 26 0 14 -9 21 -29
25 l-29 6 21 24 c22 26 48 34 27 9z m190 4 c0 -7 8 -18 18 -25 12 -10 13 -13
3 -14 -13 0 -40 28 -41 43 0 4 5 7 10 7 6 0 10 -5 10 -11z m35 1 c3 -6 -1 -7
-9 -4 -18 7 -21 14 -7 14 6 0 13 -4 16 -10z m183 -20 c-7 -10 -14 -17 -17 -15
-4 4 18 35 25 35 2 0 -1 -9 -8 -20z m-544 1 c3 -5 -3 -11 -15 -14 -16 -4 -18
-3 -8 9 13 16 16 17 23 5z m416 -20 c0 -3 -8 -15 -17 -26 -13 -16 -15 -17 -10
-2 4 9 2 17 -3 17 -6 0 -10 -10 -11 -22 0 -13 -3 -17 -6 -10 -8 20 17 61 33
55 8 -3 14 -8 14 -12z m-387 -6 c-3 -9 -8 -14 -10 -11 -3 3 -2 9 2 15 9 16 15
13 8 -4z m438 5 c9 13 10 12 5 -2 -3 -10 -3 -25 0 -33 5 -13 9 -12 25 6 16 19
19 20 25 5 3 -9 11 -13 17 -9 6 3 7 1 3 -5 -4 -7 -1 -12 8 -12 8 0 17 5 19 10
3 6 4 5 3 -2 -2 -7 -15 -12 -30 -11 -23 2 -26 0 -16 -12 9 -11 8 -18 -5 -31
-14 -15 -18 -15 -26 -3 -5 8 -9 19 -9 24 0 6 4 3 10 -5 5 -8 12 -11 16 -7 9 9
-16 38 -27 31 -5 -3 -12 2 -15 10 -8 21 -24 20 -24 -1 -1 -16 -2 -16 -12 1 -8
15 -8 21 0 24 6 2 8 11 5 20 -4 15 -3 15 6 2 10 -13 12 -13 22 0z m-371 -14
c0 -3 -4 -8 -10 -11 -5 -3 -10 -1 -10 4 0 6 5 11 10 11 6 0 10 -2 10 -4z m35
-6 c3 -5 1 -10 -4 -10 -6 0 -11 5 -11 10 0 6 2 10 4 10 3 0 8 -4 11 -10z m205
-10 c0 -5 -10 -10 -22 -9 -22 0 -22 1 -3 9 11 5 21 9 23 9 1 1 2 -3 2 -9z m41
-37 c10 3 19 1 19 -3 0 -5 3 -15 6 -24 4 -12 0 -16 -15 -16 -12 0 -21 4 -21
10 0 5 7 7 15 4 8 -4 15 -3 15 0 0 4 -11 11 -25 16 -15 6 -25 17 -24 27 1 17
2 16 6 0 3 -13 11 -17 24 -14z m-241 7 c0 -5 -4 -10 -10 -10 -5 0 -10 5 -10
10 0 6 5 10 10 10 6 0 10 -4 10 -10z m287 -11 c1 -12 9 -29 17 -38 20 -22 20
-28 2 -28 -8 0 -17 12 -21 26 -3 14 -8 34 -11 44 -3 9 -2 17 3 17 5 0 9 -10
10 -21z m-881 -14 c-9 -9 -16 -13 -16 -8 0 5 5 14 12 21 6 6 14 10 16 7 2 -2
-3 -11 -12 -20z m806 -37 c-12 -22 -12 -22 -7 5 5 25 -2 32 -27 28 -10 -1 -10
13 -1 23 4 3 16 -2 27 -13 16 -17 18 -24 8 -43z m123 44 c1 -4 7 -17 14 -30
11 -20 10 -26 -3 -41 -9 -10 -16 -23 -16 -29 0 -7 -5 -12 -11 -12 -6 0 -9 7
-5 15 4 11 -1 15 -19 15 -15 0 -25 6 -25 14 0 13 4 13 27 1 23 -12 28 -12 39
3 12 17 -2 56 -18 46 -10 -6 -10 -1 -2 21 6 14 19 13 19 -3z m-455 4 c0 -3 -4
-8 -10 -11 -5 -3 -10 -1 -10 4 0 6 5 11 10 11 6 0 10 -2 10 -4z m-60 -16 c0
-5 -4 -10 -10 -10 -5 0 -10 5 -10 10 0 6 5 10 10 10 6 0 10 -4 10 -10z m-70
-50 c0 -5 -4 -10 -10 -10 -5 0 -10 5 -10 10 0 6 5 10 10 10 6 0 10 -4 10 -10z
m-360 -16 c0 -8 -5 -12 -10 -9 -6 4 -8 11 -5 16 9 14 15 11 15 -7z m427 0 c-3
-3 -12 -4 -19 -1 -8 3 -5 6 6 6 11 1 17 -2 13 -5z m583 2 c0 -3 -4 -8 -10 -11
-5 -3 -10 -1 -10 4 0 6 5 11 10 11 6 0 10 -2 10 -4z m-1050 -37 c0 -6 -4 -7
-10 -4 -5 3 -10 11 -10 16 0 6 5 7 10 4 6 -3 10 -11 10 -16z m954 4 c8 -21 -4
-43 -24 -43 -12 0 -17 6 -15 18 2 9 4 22 4 28 1 15 29 13 35 -3z m-939 -33 c3
-5 1 -10 -4 -10 -6 0 -11 5 -11 10 0 6 2 10 4 10 3 0 8 -4 11 -10z m-75 -111
c0 -6 -4 -7 -10 -4 -5 3 -10 11 -10 16 0 6 5 7 10 4 6 -3 10 -11 10 -16z m400
7 c0 -3 -4 -8 -10 -11 -5 -3 -10 -1 -10 4 0 6 5 11 10 11 6 0 10 -2 10 -4z
m-10 -85 c0 -5 -7 -12 -16 -15 -14 -5 -15 -4 -4 9 14 17 20 19 20 6z m-124
-313 c4 -7 3 -8 -4 -4 -7 4 -12 0 -12 -10 0 -10 -3 -15 -6 -11 -7 6 2 37 10
37 3 0 8 -5 12 -12z m4 -88 c13 -8 13 -11 -1 -26 -11 -11 -19 -12 -23 -5 -4 6
-2 11 5 11 7 0 4 7 -7 15 -14 11 -15 14 -4 15 8 0 22 -5 30 -10z"/>
<path d="M1496 1995 c-3 -8 -1 -15 4 -15 6 0 10 7 10 15 0 8 -2 15 -4 15 -2 0
-6 -7 -10 -15z"/>
<path d="M2550 6295 c0 -17 65 -60 174 -115 69 -35 126 -67 126 -72 0 -4 7 -8
15 -8 32 0 65 -23 65 -47 0 -16 6 -23 20 -23 13 0 20 -7 20 -19 0 -11 5 -23
10 -26 6 -3 10 -1 10 6 0 7 2 10 5 7 3 -3 2 -19 -1 -37 -6 -29 -8 -30 -20 -14
-11 15 -13 16 -14 2 0 -9 -8 -15 -21 -15 -12 1 -24 -6 -27 -14 -4 -12 -2 -13
9 -3 18 15 49 11 59 -8 8 -14 -1 -90 -15 -121 -4 -11 -3 -18 4 -18 6 0 11 -7
11 -15 0 -8 -7 -15 -15 -15 -8 0 -14 -6 -13 -12 2 -7 -3 -12 -11 -10 -7 1 -24
-4 -37 -13 -13 -8 -31 -15 -40 -15 -10 0 -14 -3 -10 -7 8 -8 14 -10 47 -12 11
0 17 -6 14 -12 -4 -6 -13 -8 -21 -5 -12 5 -49 -9 -115 -44 -13 -7 -18 -4 -22
12 -5 18 -8 19 -22 8 -13 -11 -15 -10 -10 2 3 8 -1 20 -9 27 -12 10 -14 9 -9
-7 3 -12 -2 -22 -12 -26 -9 -3 -13 -2 -10 4 3 6 -1 10 -9 10 -9 0 -16 8 -16
18 -1 15 -2 15 -11 -2 -9 -14 -8 -20 2 -27 11 -7 10 -11 -6 -23 -11 -8 -22
-12 -25 -10 -2 3 2 9 10 14 12 8 12 10 -2 15 -10 4 -22 4 -29 0 -8 -5 -9 -1
-4 14 3 12 2 21 -4 21 -5 0 -12 10 -14 23 -2 12 -3 5 -1 -15 3 -22 0 -38 -6
-38 -5 0 -10 15 -10 33 -1 26 -2 29 -11 15 -5 -10 -20 -18 -32 -18 -13 0 -28
-5 -34 -11 -6 -6 -24 -8 -41 -4 -27 6 -30 10 -27 38 4 29 3 30 -10 13 -8 -10
-19 -15 -27 -11 -7 3 -5 0 5 -9 11 -8 17 -22 14 -33 -4 -16 -5 -16 -6 0 0 9
-4 17 -8 18 -48 5 -80 26 -63 43 5 5 10 14 10 19 0 5 -8 -1 -19 -14 -16 -20
-21 -21 -35 -10 -10 9 -16 10 -16 2 0 -6 5 -11 10 -11 6 0 10 -4 10 -9 0 -14
-53 -6 -58 8 -6 19 -29 12 -36 -11 -5 -19 -8 -21 -16 -8 -7 12 -10 8 -10 -16
0 -31 -30 -58 -38 -35 -6 19 -22 1 -23 -27 0 -15 -3 -21 -6 -14 -7 17 -23 15
-23 -4 0 -8 -4 -12 -10 -9 -5 3 -10 1 -10 -6 0 -6 -12 -23 -26 -36 -20 -18
-24 -27 -15 -36 13 -13 -13 -47 -38 -48 -9 0 -11 -3 -5 -5 13 -5 7 -41 -9 -62
-5 -7 -7 -15 -4 -19 4 -3 9 2 13 11 8 20 24 21 24 1 0 -8 -4 -15 -10 -15 -5 0
-7 -17 -4 -37 3 -23 0 -39 -8 -44 -9 -6 -8 -13 6 -27 10 -12 13 -23 8 -26 -6
-3 -12 -2 -14 3 -1 5 -15 -4 -30 -20 -24 -27 -24 -29 -6 -23 17 5 20 3 14 -12
-4 -10 -1 -21 6 -26 10 -6 10 -8 1 -8 -7 0 -13 -7 -13 -15 0 -8 5 -15 11 -15
9 0 9 -4 0 -14 -8 -10 -5 -19 13 -39 16 -17 20 -28 13 -31 -9 -5 -9 -8 1 -12
6 -3 12 -17 12 -30 0 -16 6 -24 18 -24 13 0 14 -2 3 -9 -11 -7 -9 -10 7 -16
12 -3 21 -9 20 -13 -6 -19 46 -115 55 -105 4 3 7 -1 7 -10 0 -9 8 -21 18 -26
9 -6 11 -11 5 -11 -7 0 -13 -5 -13 -11 0 -5 5 -7 10 -4 6 3 10 -1 10 -9 0 -9
4 -16 10 -16 5 0 20 -18 32 -40 13 -22 28 -40 33 -40 6 0 16 -9 23 -20 7 -11
19 -20 26 -20 8 0 18 -5 22 -12 5 -8 0 -9 -14 -6 -12 4 -22 3 -22 -2 0 -11 45
-21 64 -14 9 3 13 10 10 15 -3 5 -1 9 5 9 5 0 13 -4 16 -10 3 -5 12 -10 18
-10 7 0 6 4 -3 10 -9 6 -10 10 -3 10 6 0 15 -5 18 -10 4 -6 21 -8 39 -4 28 5
34 2 39 -15 3 -14 10 -19 21 -15 9 3 13 11 9 17 -3 6 -1 7 6 3 6 -4 9 -11 7
-15 -8 -12 13 -37 22 -25 4 6 15 13 25 17 15 6 18 2 15 -16 -2 -16 2 -22 15
-21 20 2 23 -16 5 -34 -9 -9 -9 -12 0 -12 7 0 12 5 12 11 0 5 5 7 12 3 6 -4 8
-3 5 3 -4 6 2 13 12 16 12 3 18 0 15 -7 -2 -6 5 -12 16 -13 12 -1 18 2 14 9
-5 7 -2 8 5 4 7 -5 10 -15 7 -23 -5 -12 -1 -14 19 -9 14 4 25 2 25 -4 0 -5 -6
-10 -12 -10 -9 0 -8 -4 2 -10 19 -12 33 -13 26 -1 -3 5 6 9 21 9 21 0 23 -2
10 -10 -10 -5 -17 -13 -17 -19 0 -11 50 -1 65 12 16 15 28 10 15 -6 -14 -17
-6 -50 10 -40 5 3 10 1 10 -5 0 -6 10 -8 26 -4 18 5 25 3 20 -4 -4 -6 8 -9 34
-6 33 3 38 1 28 -10 -7 -7 -19 -12 -28 -11 -8 1 -9 0 -2 -2 6 -3 12 -10 12
-16 0 -7 4 -6 10 3 6 10 26 15 64 15 33 0 51 -4 46 -9 -9 -9 29 -46 47 -46 4
0 0 7 -11 15 -19 14 -14 35 9 35 18 0 45 -28 41 -43 -1 -7 -1 -9 1 -4 8 13 21
8 27 -10 3 -12 5 -9 4 7 -1 51 1 57 16 38 7 -10 16 -15 19 -11 4 3 7 1 7 -5 0
-7 13 -9 37 -5 29 5 35 3 29 -8 -6 -10 -4 -10 6 1 7 8 22 17 32 18 17 3 18 1
7 -11 -9 -11 -9 -17 -1 -22 7 -4 14 2 17 14 3 12 9 21 14 21 13 0 11 -24 -3
-40 -11 -12 -10 -12 5 -1 14 11 20 11 32 1 13 -10 15 -9 15 8 0 12 4 23 9 26
4 3 7 -5 6 -17 -3 -22 0 -23 76 -22 59 1 79 -2 79 -12 0 -7 5 -13 10 -13 6 0
10 10 10 21 0 17 5 20 21 16 29 -8 56 3 37 14 -9 6 -6 9 10 9 12 0 25 7 28 15
4 8 12 15 20 15 8 0 14 7 14 15 0 9 9 15 22 15 21 0 21 0 2 15 -19 15 -19 15
0 8 15 -5 18 -3 13 10 -3 9 -2 19 4 22 5 4 6 11 3 17 -3 5 10 25 30 44 36 34
45 54 26 54 -5 0 -10 5 -10 11 0 6 8 9 18 7 11 -3 19 0 19 8 0 8 -4 14 -9 14
-4 0 -8 10 -8 23 0 18 2 19 10 7 8 -12 10 -10 11 10 1 14 1 37 0 52 -1 14 3
29 9 33 8 5 7 11 -2 23 -10 12 -10 16 0 19 6 3 12 11 12 18 0 7 5 15 12 17 7
3 5 14 -8 34 -16 24 -16 27 -2 16 15 -12 18 -11 24 12 4 16 11 23 18 19 6 -3
7 -2 3 3 -5 5 -14 9 -19 9 -18 0 -20 21 -5 37 11 10 12 19 5 32 -7 13 -5 22 6
35 9 10 16 30 16 44 0 15 5 27 10 27 6 0 10 5 10 10 0 15 -47 12 -53 -2 -3 -7
-6 -3 -6 10 -1 13 -5 20 -11 17 -15 -9 -12 4 4 21 19 18 26 18 26 -1 0 -16 9
-19 25 -7 15 11 17 32 4 48 -9 11 -7 14 12 14 13 0 33 7 43 15 17 13 18 15 3
15 -29 0 -15 53 16 58 12 2 17 -4 17 -23 0 -16 4 -24 11 -20 6 4 9 25 7 48 -3
41 -2 41 35 45 37 3 42 -2 38 -37 -2 -7 2 -10 9 -6 7 5 10 19 6 37 -5 25 -4
28 8 19 10 -9 15 -8 19 3 4 11 15 13 40 9 18 -3 49 -1 69 5 38 10 68 0 68 -23
0 -8 5 -15 10 -15 6 0 10 -7 10 -16 0 -8 5 -12 11 -9 7 5 5 15 -6 31 -16 24
-10 29 19 18 9 -3 16 -15 16 -25 0 -11 7 -20 18 -20 48 -4 63 -9 113 -37 30
-18 66 -37 82 -43 15 -6 27 -15 27 -20 0 -5 7 -9 15 -9 9 0 12 6 8 18 -5 14
-4 15 8 4 11 -10 11 -16 1 -33 -12 -19 -12 -20 13 -3 23 15 30 13 26 -9 -1 -4
7 -3 18 3 26 13 40 13 21 -1 -11 -8 -12 -12 -2 -16 21 -9 13 -25 -10 -18 -21
6 -22 5 -4 -6 16 -10 22 -8 37 10 11 13 20 17 24 11 4 -6 2 -17 -4 -24 -9 -10
-7 -15 5 -20 9 -4 19 -4 22 -1 3 3 -1 5 -8 5 -9 0 -7 5 6 15 10 8 24 14 29 15
6 0 3 -5 -5 -10 -12 -8 -11 -10 7 -10 12 0 25 -4 28 -10 3 -5 2 -10 -4 -10 -6
0 -8 -7 -5 -15 5 -11 9 -11 19 -2 7 6 10 18 7 26 -4 10 2 9 21 -4 14 -9 32
-13 39 -9 7 4 10 4 6 -1 -8 -8 36 -36 62 -39 30 -4 100 -29 100 -37 0 -4 10
-7 23 -7 12 0 78 -4 147 -8 69 -5 152 -6 185 -3 59 7 244 20 278 20 9 0 17 4
17 8 0 5 11 11 25 13 14 3 25 1 25 -3 0 -5 6 -6 13 -4 29 10 100 13 122 5 13
-5 26 -18 30 -29 5 -16 12 -20 31 -15 20 5 24 2 24 -15 0 -12 -4 -21 -10 -21
-5 0 -7 -13 -3 -30 3 -19 1 -30 -6 -30 -6 0 -11 11 -11 25 0 18 -5 25 -20 25
-11 0 -20 5 -20 11 0 6 7 8 16 5 14 -5 15 -4 5 8 -7 8 -23 13 -37 12 -29 -3
-45 -16 -20 -16 12 0 16 -5 13 -14 -4 -10 4 -17 24 -21 28 -6 41 -25 17 -25
-20 0 -4 -9 65 -35 l68 -25 8 22 c8 20 10 21 16 6 10 -26 42 -22 61 7 9 14 24
25 34 25 10 0 25 7 34 15 8 8 19 15 25 15 8 0 11 209 11 700 l0 700 -1875 0
c-1031 0 -1875 -2 -1875 -5z m1950 -211 c0 -8 -5 -12 -10 -9 -6 4 -8 11 -5 16
9 14 15 11 15 -7z m70 -39 c0 -8 -4 -15 -10 -15 -5 0 -10 7 -10 15 0 8 5 15
10 15 6 0 10 -7 10 -15z m-20 -115 c0 -5 -4 -10 -10 -10 -5 0 -10 5 -10 10 0
6 5 10 10 10 6 0 10 -4 10 -10z m-1527 -131 c7 0 3 -4 -8 -9 -29 -13 -35 -12
-35 6 0 11 5 14 16 10 9 -3 21 -6 27 -7z m4 -75 c-3 -3 -12 -4 -19 -1 -8 3 -5
6 6 6 11 1 17 -2 13 -5z m-42 -14 c-3 -5 -10 -10 -16 -10 -5 0 -9 5 -9 10 0 6
7 10 16 10 8 0 12 -4 9 -10z m62 -16 c-10 -11 -67 -13 -67 -3 0 5 17 9 37 9
20 0 33 -3 30 -6z m-77 -25 c0 -4 -9 -9 -20 -12 -13 -3 -20 0 -20 8 0 8 9 13
20 12 11 -1 20 -4 20 -8z m67 -31 c-3 -8 -6 -5 -6 6 -1 11 2 17 5 13 3 -3 4
-12 1 -19z m-524 -5 c-7 -3 -13 -14 -13 -26 0 -18 -2 -19 -10 -7 -9 15 17 56
29 44 3 -4 0 -9 -6 -11z m37 2 c0 -8 -4 -15 -10 -15 -5 0 -10 7 -10 15 0 8 5
15 10 15 6 0 10 -7 10 -15z m376 -7 c5 -8 2 -9 -9 -5 -12 4 -17 1 -17 -11 0
-15 -2 -15 -10 -2 -5 8 -10 18 -10 23 0 12 38 8 46 -5z m54 -23 c0 -19 -2 -35
-4 -35 -2 0 -6 16 -8 35 -2 19 0 35 4 35 4 0 8 -16 8 -35z m-110 10 c0 -8 -4
-15 -10 -15 -5 0 -10 7 -10 15 0 8 5 15 10 15 6 0 10 -7 10 -15z m86 -28 c1
-9 -4 -17 -11 -17 -14 0 -27 25 -17 34 10 10 25 1 28 -17z m-63 -50 c-8 -15
-23 5 -23 31 l0 27 14 -25 c7 -14 11 -28 9 -33z m37 9 c0 -5 -7 -3 -15 4 -8 7
-15 20 -15 28 0 13 3 12 15 -4 8 -10 15 -23 15 -28z m109 -2 c-6 -8 -15 -11
-18 -7 -3 4 -10 12 -16 16 -6 5 -3 7 8 3 9 -3 17 -1 17 5 0 6 5 7 10 4 8 -5 7
-11 -1 -21z m51 -119 c7 -9 8 -15 2 -15 -5 0 -12 7 -16 15 -3 8 -4 15 -2 15 2
0 9 -7 16 -15z m60 -25 c0 -5 -5 -10 -11 -10 -5 0 -7 5 -4 10 3 6 8 10 11 10
2 0 4 -4 4 -10z m70 -24 c0 -3 -4 -8 -10 -11 -5 -3 -10 -1 -10 4 0 6 5 11 10
11 6 0 10 -2 10 -4z m-110 -36 c0 -5 -5 -10 -11 -10 -5 0 -7 5 -4 10 3 6 8 10
11 10 2 0 4 -4 4 -10z m-20 -30 c0 -5 -2 -10 -4 -10 -3 0 -8 5 -11 10 -3 6 -1
10 4 10 6 0 11 -4 11 -10z m207 -47 c-3 -3 -11 -2 -17 2 -9 6 -9 10 1 16 14 8
27 -7 16 -18z m-27 -13 c0 -5 -4 -10 -10 -10 -5 0 -10 5 -10 10 0 6 5 10 10
10 6 0 10 -4 10 -10z m1335 -50 c-3 -5 -12 -10 -18 -10 -7 0 -6 4 3 10 19 12
23 12 15 0z m-1295 -30 c0 -5 -2 -10 -4 -10 -3 0 -8 5 -11 10 -3 6 -1 10 4 10
6 0 11 -4 11 -10z m564 -215 c3 -8 1 -15 -4 -15 -6 0 -10 7 -10 15 0 8 2 15 4
15 2 0 6 -7 10 -15z m2196 -101 c0 -8 -4 -14 -9 -14 -6 0 -9 9 -8 19 1 22 17
18 17 -5z m-2240 -199 c0 -9 -6 -12 -15 -9 -8 4 -12 10 -9 15 8 14 24 10 24
-6z m-990 -255 c0 -5 -2 -10 -4 -10 -3 0 -8 5 -11 10 -3 6 -1 10 4 10 6 0 11
-4 11 -10z m870 0 c0 -5 -5 -10 -11 -10 -5 0 -7 5 -4 10 3 6 8 10 11 10 2 0 4
-4 4 -10z m-695 -48 c-3 -3 -11 0 -18 7 -9 10 -8 11 6 5 10 -3 15 -9 12 -12z"/>
<path d="M2925 5790 c3 -5 10 -10 16 -10 5 0 9 5 9 10 0 6 -7 10 -16 10 -8 0
-12 -4 -9 -10z"/>
<path d="M2900 5755 c0 -8 4 -15 9 -15 5 0 11 7 15 15 3 9 0 15 -9 15 -8 0
-15 -7 -15 -15z"/>
<path d="M2281 5724 c0 -11 3 -14 6 -6 3 7 2 16 -1 19 -3 4 -6 -2 -5 -13z"/>
<path d="M2745 5730 c3 -5 8 -10 11 -10 2 0 4 5 4 10 0 6 -5 10 -11 10 -5 0
-7 -4 -4 -10z"/>
<path d="M2231 5704 c0 -11 3 -14 6 -6 3 7 2 16 -1 19 -3 4 -6 -2 -5 -13z"/>
<path d="M2340 5700 c-8 -5 -12 -11 -9 -14 2 -3 11 -1 19 4 8 5 12 11 9 14 -2
3 -11 1 -19 -4z"/>
<path d="M2516 5697 c3 -10 9 -15 12 -12 3 3 0 11 -7 18 -10 9 -11 8 -5 -6z"/>
<path d="M2648 5703 c7 -3 16 -2 19 1 4 3 -2 6 -13 5 -11 0 -14 -3 -6 -6z"/>
<path d="M2734 5701 c4 -5 3 -11 -1 -14 -5 -2 -3 -2 4 -1 16 4 26 -13 13 -21
-12 -7 -4 -25 12 -25 5 0 8 7 4 15 -3 10 1 15 12 16 10 0 12 3 4 6 -6 2 -9 10
-5 16 4 6 0 8 -10 4 -10 -3 -17 -2 -17 3 0 6 -5 10 -11 10 -5 0 -8 -4 -5 -9z"/>
<path d="M2463 5683 c-18 -2 -33 -8 -33 -13 0 -13 34 -22 38 -11 2 6 10 11 17
11 8 0 17 5 20 10 3 6 3 9 -2 8 -4 0 -23 -3 -40 -5z"/>
<path d="M2810 5676 c0 -18 17 -29 30 -21 8 5 7 11 -1 21 -15 18 -29 18 -29 0z"/>
<path d="M2676 5665 c-3 -8 -1 -15 4 -15 6 0 10 7 10 15 0 8 -2 15 -4 15 -2 0
-6 -7 -10 -15z"/>
<path d="M2130 5652 c0 -12 4 -22 9 -22 10 0 9 26 -2 36 -4 4 -7 -2 -7 -14z"/>
<path d="M2615 5650 c-3 -5 -1 -10 4 -10 6 0 11 5 11 10 0 6 -2 10 -4 10 -3 0
-8 -4 -11 -10z"/>
<path d="M2785 5640 c3 -5 10 -10 16 -10 5 0 9 5 9 10 0 6 -7 10 -16 10 -8 0
-12 -4 -9 -10z"/>
<path d="M4050 5244 c0 -13 5 -24 11 -24 6 0 8 9 4 23 -6 18 -5 20 6 10 7 -7
16 -13 19 -13 4 0 7 6 7 13 0 6 -11 13 -24 13 -18 2 -23 -3 -23 -22z"/>
<path d="M3955 5100 c3 -5 8 -10 11 -10 2 0 4 5 4 10 0 6 -5 10 -11 10 -5 0
-7 -4 -4 -10z"/>
<path d="M4926 5032 c-3 -4 4 -9 15 -9 23 -2 25 3 4 10 -8 4 -16 3 -19 -1z"/>
<path d="M4958 5003 c6 -2 18 -2 25 0 6 3 1 5 -13 5 -14 0 -19 -2 -12 -5z"/>
<path d="M5893 4983 c15 -2 25 -9 22 -14 -4 -5 -1 -9 4 -9 6 0 11 7 11 15 0
11 -10 15 -32 14 -31 -2 -31 -2 -5 -6z"/>
<path d="M1923 4937 c4 -10 7 -31 8 -45 0 -15 3 -21 6 -14 8 21 23 13 23 -13
0 -19 -4 -23 -17 -19 -14 5 -15 4 -4 -4 8 -6 11 -17 8 -26 -3 -8 -2 -18 3 -21
6 -4 10 2 10 11 0 10 2 15 5 12 11 -11 13 -118 2 -111 -6 3 -7 1 -3 -6 4 -6
12 -9 17 -5 6 3 19 -2 30 -12 10 -9 22 -14 26 -10 13 13 11 37 -4 43 -11 4
-12 8 -3 13 10 6 9 16 -4 40 -9 18 -16 39 -16 46 0 14 -54 99 -79 124 -13 13
-14 13 -8 -3z m74 -219 c-3 -7 -5 -2 -5 12 0 14 2 19 5 13 2 -7 2 -19 0 -25z
m43 -12 c0 -3 -4 -8 -10 -11 -5 -3 -10 -1 -10 4 0 6 5 11 10 11 6 0 10 -2 10
-4z"/>
<path d="M5970 4842 c0 -5 7 -9 15 -9 8 0 12 4 9 9 -3 4 -9 8 -15 8 -5 0 -9
-4 -9 -8z"/>
<path d="M6010 4826 c0 -2 7 -7 16 -10 8 -3 12 -2 9 4 -6 10 -25 14 -25 6z"/>
<path d="M5985 4810 c3 -5 11 -10 16 -10 6 0 7 5 4 10 -3 6 -11 10 -16 10 -6
0 -7 -4 -4 -10z"/>
<path d="M5936 4794 c-9 -24 -7 -31 4 -14 9 13 11 13 20 0 5 -8 10 -10 10 -4
0 6 -6 17 -14 23 -11 9 -15 8 -20 -5z"/>
<path d="M6050 4794 c-16 -10 -18 -13 -5 -8 11 4 28 6 38 6 9 0 17 3 17 9 0
13 -21 10 -50 -7z"/>
<path d="M2415 4560 c3 -5 8 -10 11 -10 2 0 4 5 4 10 0 6 -5 10 -11 10 -5 0
-7 -4 -4 -10z"/>
<path d="M2710 4400 c0 -5 5 -10 11 -10 5 0 7 5 4 10 -3 6 -8 10 -11 10 -2 0
-4 -4 -4 -10z"/>
<path d="M1875 4060 c3 -5 8 -10 11 -10 2 0 4 5 4 10 0 6 -5 10 -11 10 -5 0
-7 -4 -4 -10z"/>
<path d="M1440 3946 c0 -9 5 -16 10 -16 6 0 10 4 10 9 0 6 -4 13 -10 16 -5 3
-10 -1 -10 -9z"/>
<path d="M1375 3920 c-3 -5 1 -10 10 -10 9 0 13 5 10 10 -3 6 -8 10 -10 10 -2
0 -7 -4 -10 -10z"/>
<path d="M1330 3840 c0 -5 5 -10 11 -10 5 0 7 5 4 10 -3 6 -8 10 -11 10 -2 0
-4 -4 -4 -10z"/>
<path d="M6156 3574 c-20 -19 -20 -28 -2 -21 12 5 14 -2 12 -32 -2 -21 -6 -43
-10 -50 -8 -13 10 -41 27 -41 7 0 7 4 -1 12 -19 19 -14 37 13 50 14 6 25 15
25 20 0 5 -4 6 -10 3 -5 -3 -10 2 -11 12 0 14 -2 14 -9 -4 -5 -13 -11 -23 -14
-23 -8 0 7 45 18 52 7 5 4 8 -8 8 -12 0 -16 5 -12 15 7 19 1 19 -18 -1z"/>
<path d="M6046 3564 c-8 -22 -4 -25 11 -9 7 8 9 16 4 19 -5 3 -12 -1 -15 -10z"/>
<path d="M6106 3571 c-3 -4 1 -17 9 -27 8 -10 15 -14 15 -7 0 6 -5 15 -10 18
-6 4 -8 11 -5 16 4 5 4 9 1 9 -3 0 -7 -4 -10 -9z"/>
<path d="M6220 3565 c-7 -9 -8 -15 -2 -15 5 0 12 7 16 15 3 8 4 15 2 15 -2 0
-9 -7 -16 -15z"/>
<path d="M6280 3555 c-10 -12 -15 -13 -21 -4 -4 7 -6 1 -6 -14 3 -36 20 -34
34 3 13 34 11 37 -7 15z"/>
<path d="M6080 3554 c0 -6 7 -19 16 -30 14 -18 14 -18 3 6 -14 31 -19 36 -19
24z"/>
<path d="M6117 3495 c-16 -20 -32 -33 -37 -30 -14 8 -23 -16 -11 -28 8 -8 11
-8 11 1 0 7 5 12 10 12 16 0 11 -20 -6 -27 -10 -4 -22 0 -29 10 -10 14 -13 13
-25 -6 -14 -21 -15 -26 -19 -57 -1 -12 -3 -12 -10 -2 -5 8 -20 15 -35 15 -28
2 -34 12 -13 20 6 3 2 6 -10 6 -16 1 -21 -3 -17 -14 8 -19 0 -19 -18 -1 -15
15 -118 28 -118 15 0 -5 -7 -9 -16 -9 -9 0 -12 5 -8 13 4 6 -2 4 -13 -6 -11
-9 -23 -14 -28 -10 -4 5 -5 2 -1 -4 9 -17 -16 -17 -32 -1 -9 9 -12 9 -12 -3 0
-9 -8 -25 -18 -37 -18 -20 -20 -20 -37 -4 -17 16 -17 16 -11 -13 l6 -30 -15
25 c-11 19 -14 21 -15 8 0 -10 -3 -18 -7 -18 -5 0 -23 -14 -42 -31 -26 -26
-35 -29 -42 -18 -6 9 -9 10 -9 2 0 -6 5 -15 10 -18 11 -7 -6 -28 -30 -38 -11
-4 -11 -6 4 -6 14 -1 11 -9 -20 -40 -21 -21 -44 -36 -51 -34 -7 3 -13 0 -13
-7 0 -10 -3 -10 -15 0 -13 11 -15 9 -15 -13 0 -26 -42 -63 -60 -52 -5 3 -19
-10 -32 -29 -19 -28 -26 -32 -39 -23 -9 7 -18 19 -22 27 -3 8 -5 -7 -5 -35 0
-39 2 -45 8 -25 7 23 8 23 9 3 1 -28 -15 -38 -27 -17 -9 16 -10 15 -16 -3 -4
-11 -3 -29 0 -39 6 -18 6 -18 -8 1 -10 11 -13 25 -8 35 26 53 32 69 25 79 -3
6 -11 9 -16 6 -5 -4 -9 1 -9 10 0 9 -4 14 -9 11 -12 -8 -11 -58 2 -74 15 -19
0 -27 -18 -8 -23 23 -32 20 -11 -3 20 -22 16 -36 -14 -44 -16 -4 -20 0 -21 21
-1 20 -4 17 -9 -13 -4 -22 -8 -32 -9 -21 -1 13 -6 16 -18 11 -10 -4 -23 -8
-30 -8 -8 0 -8 -8 -3 -23 6 -14 5 -26 0 -29 -6 -4 -10 1 -10 10 0 11 -6 15
-19 10 -13 -4 -21 1 -26 17 -6 19 -8 20 -12 6 -2 -10 -13 -18 -23 -18 -10 0
-22 -4 -25 -10 -3 -5 -1 -10 4 -10 6 0 10 -3 10 -7 -3 -19 2 -33 12 -33 6 0 9
7 6 15 -4 8 -2 17 2 19 5 3 8 -5 8 -17 1 -46 2 -48 26 -42 17 5 19 4 6 -4 -20
-13 -59 -3 -59 15 0 8 -4 14 -10 14 -5 0 -10 -5 -10 -11 0 -5 -5 -7 -11 -3 -8
5 -8 9 1 14 13 8 3 60 -11 60 -12 0 -11 -17 1 -25 15 -9 1 -27 -16 -21 -8 3
-14 1 -14 -4 0 -6 5 -10 10 -10 23 0 7 -18 -19 -22 -22 -3 -31 0 -34 14 -6 20
9 25 16 6 2 -7 8 -10 13 -5 12 12 -20 39 -39 31 -13 -5 -14 -10 -6 -26 6 -11
8 -22 5 -25 -3 -3 2 -12 12 -19 9 -7 12 -14 6 -14 -5 0 -20 9 -31 19 -23 21
-33 18 -33 -11 0 -10 -7 -18 -15 -18 -8 0 -15 -6 -15 -14 0 -8 -3 -21 -6 -30
-3 -9 -2 -16 4 -16 5 0 12 8 15 19 4 18 57 36 57 20 0 -5 -11 -9 -25 -9 -18 0
-25 -5 -25 -19 0 -11 -3 -22 -7 -24 -12 -7 -45 7 -44 18 1 6 -8 11 -19 11 -25
2 -40 14 -17 14 9 0 17 5 17 10 0 6 -4 10 -9 10 -14 0 -33 -28 -26 -40 8 -13
-11 -13 -37 1 -16 8 -19 8 -13 -1 5 -8 3 -11 -4 -9 -20 7 -8 24 15 24 24 -1
27 26 4 37 -27 12 -38 8 -44 -16 -5 -21 -45 -43 -68 -38 -5 1 -8 -3 -8 -8 0
-11 37 -9 55 2 6 4 17 2 25 -3 13 -8 13 -10 1 -18 -11 -7 -10 -10 5 -14 18 -5
18 -6 -1 -5 -37 1 -46 -2 -40 -12 7 -12 -19 -53 -28 -43 -14 13 -7 32 10 26
12 -5 15 -2 10 10 -4 10 0 20 11 26 15 9 14 10 -5 11 -13 0 -23 -5 -23 -11 0
-8 -5 -8 -15 1 -12 10 -15 10 -15 -4 0 -9 -7 -16 -17 -16 -15 0 -15 1 0 18 16
17 18 45 4 58 -4 4 -7 13 -7 20 0 18 50 12 51 -6 0 -9 3 -10 5 -4 3 7 15 10
27 8 12 -2 16 -2 10 2 -7 3 -13 10 -13 15 0 6 5 7 10 4 6 -3 10 -1 10 4 0 6
-9 11 -20 11 -11 0 -20 -4 -20 -9 0 -5 -9 -7 -20 -4 -11 3 -17 9 -14 14 3 5 9
7 13 5 4 -3 8 2 8 10 0 10 -9 6 -29 -13 -15 -15 -28 -34 -28 -43 0 -9 -3 -20
-7 -24 -9 -9 -10 -96 -1 -96 4 0 4 -7 1 -17 -5 -12 -3 -14 8 -8 11 6 12 5 2
-6 -17 -18 -16 -34 1 -20 11 9 15 8 20 -5 9 -23 7 -34 -5 -34 -6 0 -8 7 -5 16
4 10 1 14 -6 11 -7 -2 -12 -12 -12 -21 1 -9 -3 -16 -8 -16 -5 0 -8 8 -6 18 1
9 -1 23 -5 30 -5 7 -4 12 3 12 6 0 5 13 -5 36 -18 43 -18 47 -5 39 16 -10 12
7 -5 19 -8 6 -17 30 -21 54 l-7 42 34 1 c31 2 32 2 6 6 -25 4 -27 7 -15 21 12
15 11 16 -12 0 -25 -15 -27 -15 -44 6 -9 11 -25 33 -34 49 -9 15 -20 27 -24
27 -4 0 -5 6 -2 14 4 11 0 13 -16 9 -12 -3 -25 -1 -29 5 -11 18 -103 62 -130
62 -24 0 -28 -7 -55 -93 -15 -50 -41 -127 -57 -170 -16 -43 -29 -83 -29 -88 0
-6 -25 -62 -56 -125 -39 -81 -67 -126 -96 -152 -135 -122 -164 -157 -215 -262
-29 -58 -55 -117 -59 -133 -3 -15 -10 -30 -15 -33 -16 -10 -9 -47 18 -93 38
-66 79 -101 151 -130 17 -7 32 -17 32 -22 0 -5 11 -9 25 -9 14 0 25 -3 25 -6
0 -13 -30 -34 -50 -34 -17 0 -20 -4 -15 -22 6 -17 4 -20 -9 -15 -10 4 -14 3
-11 -2 3 -6 -3 -14 -12 -20 -15 -9 -15 -12 -4 -20 11 -7 10 -11 -5 -19 -18
-10 -18 -11 -1 -30 20 -21 10 -36 -17 -26 -11 4 -16 1 -16 -11 0 -12 7 -16 30
-13 41 4 39 -16 -2 -22 -22 -3 -29 -8 -20 -13 6 -5 16 -6 21 -2 5 3 12 1 15
-4 4 -5 2 -12 -4 -16 -20 -12 -10 -26 10 -15 11 6 20 7 20 2 0 -13 -39 -22
-46 -11 -3 5 -10 6 -16 3 -6 -4 -5 -10 3 -15 11 -7 8 -11 -10 -15 l-23 -7 23
-13 c21 -11 21 -13 5 -14 -27 0 -61 -41 -44 -52 8 -5 -2 -6 -23 -3 -29 5 -38
3 -43 -11 -3 -9 -4 -19 -1 -22 3 -3 5 -1 5 5 0 14 38 24 46 12 3 -5 1 -9 -5
-9 -5 0 -12 -9 -16 -19 -5 -16 -11 -18 -35 -11 -29 8 -53 -3 -28 -13 10 -4 9
-6 -1 -6 -11 -1 -11 -4 -1 -16 10 -13 9 -15 -12 -15 -32 0 -66 -24 -49 -35 7
-4 18 -2 24 4 6 6 22 11 37 10 23 -1 23 -2 -9 -15 -36 -16 -79 -11 -94 9 -6 8
-7 6 -4 -4 3 -9 0 -22 -6 -28 -8 -8 -8 -11 1 -11 7 0 12 4 12 10 0 5 8 6 17 3
11 -4 12 -8 5 -11 -7 -2 -12 -8 -12 -14 0 -5 8 -7 19 -3 13 4 20 0 24 -15 6
-24 8 -24 -33 -3 -24 12 -35 13 -38 5 -2 -7 -9 -9 -14 -6 -7 5 -8 2 -3 -6 4
-7 2 -16 -6 -21 -10 -6 -8 -9 9 -9 12 0 22 -5 22 -11 0 -6 -8 -9 -19 -6 -10 2
-26 0 -36 -5 -12 -8 -20 -6 -26 3 -7 12 -11 11 -26 -4 -16 -16 -16 -17 2 -17
11 0 36 -10 55 -21 l34 -21 -22 -18 c-13 -11 -18 -21 -12 -25 6 -3 8 -11 5
-16 -10 -15 12 -10 25 6 14 17 29 19 50 5 12 -7 12 -12 2 -22 -9 -9 -12 -8
-12 6 0 9 -5 14 -10 11 -6 -4 -8 -11 -5 -16 5 -8 -24 -14 -47 -10 -5 0 -8 -3
-8 -8 0 -5 19 -8 43 -6 36 3 43 1 43 -15 0 -18 -2 -18 -18 -4 -9 9 -22 13 -28
9 -9 -6 -9 -10 1 -16 15 -9 20 -69 7 -69 -4 0 -8 6 -8 13 0 6 -11 12 -24 12
-29 0 -24 -21 7 -31 27 -8 57 -33 57 -48 0 -6 -4 -5 -9 2 -11 18 -84 35 -78
19 2 -7 14 -13 26 -13 12 -1 27 -6 33 -12 9 -9 2 -10 -25 -7 -21 3 -37 1 -37
-5 0 -6 9 -10 19 -10 20 0 37 -17 28 -26 -3 -3 -21 2 -41 10 -20 8 -36 11 -36
7 0 -5 9 -11 20 -14 25 -6 26 -27 3 -28 -12 0 -13 -2 -5 -6 7 -3 19 0 26 6 11
9 14 7 12 -14 0 -14 -7 -25 -13 -25 -7 0 -13 -5 -13 -11 0 -6 -9 -8 -20 -4
-14 5 -20 2 -20 -9 0 -9 5 -16 10 -16 6 0 10 -8 10 -17 -1 -17 -1 -17 -11 0
-13 23 -29 22 -29 -3 0 -15 -7 -20 -27 -20 l-28 -1 24 -13 23 -13 -23 -7 c-18
-4 -21 -8 -10 -15 9 -6 10 -10 2 -16 -9 -5 -9 -10 0 -21 7 -8 7 -14 1 -14 -5
0 -17 10 -26 22 -12 16 -16 18 -12 5 3 -9 0 -17 -7 -17 -8 0 -8 -3 2 -9 11 -7
11 -9 0 -13 -8 -3 -14 -18 -15 -34 0 -21 -5 -29 -18 -27 -11 0 -15 -4 -12 -13
3 -8 -1 -14 -9 -14 -7 0 -16 8 -18 17 -4 16 -5 16 -6 1 0 -9 6 -23 14 -32 20
-19 19 -23 -6 -22 -12 1 -24 -5 -26 -11 -3 -7 4 -13 14 -14 15 0 15 -2 -4 -11
-27 -13 -30 -28 -5 -29 14 0 13 -3 -5 -16 -29 -20 -29 -36 0 -29 l22 6 -23
-12 c-17 -8 -28 -8 -49 1 -23 11 -25 10 -13 -3 7 -9 21 -16 31 -16 11 0 19 -4
19 -10 0 -5 -10 -10 -22 -10 -13 0 -18 -4 -13 -8 23 -16 10 -37 -20 -35 -17 1
-22 -1 -12 -3 22 -7 22 -41 0 -47 -10 -3 323 -5 740 -6 486 0 757 3 757 9 0 6
7 10 16 10 8 0 12 5 8 11 -3 6 -15 9 -25 6 -12 -3 -19 0 -19 9 0 8 6 11 15 8
24 -9 37 5 20 22 -21 22 -19 31 13 42 26 10 27 11 5 17 -25 8 -32 35 -10 35 8
0 22 9 32 20 10 11 13 20 7 20 -6 0 -13 -6 -15 -12 -3 -7 -4 0 -3 15 2 16 10
37 19 47 14 17 14 19 -1 25 -12 5 -13 9 -4 12 6 3 12 18 12 33 0 16 4 31 10
35 5 3 7 12 4 19 -3 7 4 39 15 70 11 31 15 56 10 56 -5 0 -9 -8 -9 -17 0 -9
-3 -14 -6 -10 -8 8 15 77 27 77 5 0 4 11 -1 25 -7 20 -6 25 5 25 20 0 19 10
-2 26 -13 9 -14 13 -4 14 8 0 11 6 7 17 -4 9 -2 19 4 23 6 4 12 28 13 53 1 25
5 40 9 34 10 -16 20 -3 12 16 -3 9 -12 13 -21 10 -12 -5 -13 -2 -4 16 6 11 15
29 20 39 4 9 7 31 5 47 -2 18 0 25 5 17 6 -10 10 -10 21 3 7 8 8 15 3 15 -5 0
-10 14 -11 30 -1 17 3 30 9 30 8 0 7 5 -2 16 -11 13 -10 17 4 25 9 6 17 20 17
31 0 21 0 21 15 2 13 -17 14 -15 8 30 -4 33 -3 47 4 43 6 -4 14 0 17 9 9 24 7
31 -4 14 -8 -11 -9 -7 -4 15 4 17 11 36 17 43 7 8 5 12 -7 12 -10 0 -14 5 -11
11 4 6 14 8 22 5 9 -4 11 -2 6 7 -14 22 -13 39 2 27 9 -8 14 -5 18 10 3 11 1
20 -4 20 -5 0 -9 5 -9 11 0 5 4 8 9 5 4 -3 17 4 27 17 19 21 19 21 0 7 -18
-14 -19 -13 -13 2 3 10 2 20 -3 23 -6 4 -10 12 -10 18 0 7 4 6 11 -3 8 -12 10
-9 6 12 -2 15 0 33 4 40 7 11 9 11 9 0 0 -7 5 -10 10 -7 7 4 7 12 0 25 -15 29
-13 45 4 31 12 -10 13 -6 6 24 -5 20 -6 34 -3 31 3 -3 13 2 22 11 12 12 16 39
18 112 2 102 14 192 37 281 8 30 21 82 30 116 8 33 24 85 35 115 33 92 121
369 121 381 0 6 7 19 15 28 9 10 18 27 20 40 7 35 114 243 134 260 3 3 28 32
56 65 55 67 100 111 129 127 16 9 18 8 11 -8 -18 -43 -105 -294 -123 -359 -84
-292 -92 -337 -59 -369 17 -17 18 -17 37 6 22 26 42 88 65 203 30 147 56 240
74 265 10 14 33 59 51 100 18 41 36 80 40 85 4 6 15 33 23 60 9 28 29 88 46
135 27 77 29 86 13 92 -16 6 -16 7 1 7 9 1 17 5 17 10 0 5 20 20 45 32 25 12
45 30 45 38 0 14 2 14 9 2 8 -12 12 -12 24 -3 10 8 29 10 56 6 40 -6 51 -17
31 -29 -5 -3 -10 -17 -10 -30 0 -13 -16 -67 -35 -122 -20 -54 -56 -159 -80
-233 -75 -226 -71 -218 -116 -232 -51 -15 -105 -67 -147 -143 -18 -33 -44 -78
-57 -99 -13 -22 -33 -70 -45 -108 -12 -37 -26 -66 -31 -63 -5 4 -9 -2 -9 -12
0 -15 -2 -16 -10 -3 -8 13 -10 13 -10 -2 0 -23 66 -90 118 -118 43 -24 51 -35
30 -42 -7 -3 2 -11 19 -18 17 -8 29 -19 26 -26 -2 -6 3 -14 12 -18 13 -5 14
-8 3 -20 -7 -8 -17 -11 -23 -8 -5 3 -4 -2 4 -11 12 -15 11 -17 -3 -17 -9 0
-16 -4 -16 -10 0 -5 6 -10 13 -10 9 0 9 -2 0 -8 -7 -5 -14 -31 -15 -59 -2 -36
-7 -49 -16 -46 -7 3 -10 -1 -8 -8 2 -8 7 -27 10 -42 6 -26 5 -27 -14 -17 -16
8 -20 8 -20 -4 0 -8 6 -17 13 -19 7 -3 4 -6 -6 -6 -10 -1 -16 -5 -12 -10 3 -5
-3 -12 -12 -14 -10 -3 -2 -6 17 -7 35 -2 35 -2 6 -9 -16 -3 -31 -12 -34 -20
-3 -8 0 -11 7 -7 6 4 11 3 11 -3 0 -15 -18 -23 -25 -11 -3 5 -11 10 -17 10 -7
0 -6 -6 2 -15 10 -12 10 -15 -4 -15 -9 0 -16 -6 -16 -14 0 -8 -3 -21 -6 -30
-3 -9 -1 -16 5 -16 6 0 11 7 11 15 0 8 5 15 10 15 14 0 12 -11 -4 -33 -8 -11
-21 -15 -32 -11 -18 5 -18 5 0 -10 18 -14 17 -15 -17 -13 -29 3 -34 1 -25 -10
6 -7 21 -13 34 -13 12 0 26 -5 29 -10 4 -6 3 -10 -2 -9 -21 4 -33 -2 -33 -16
0 -8 -6 -12 -14 -9 -8 3 -19 -3 -26 -15 -6 -12 -7 -21 -2 -21 6 0 12 -9 15
-20 3 -11 1 -20 -4 -20 -5 0 -9 5 -9 10 0 6 -11 10 -25 10 -14 0 -25 -5 -25
-11 0 -6 9 -8 20 -4 14 4 20 2 20 -8 0 -8 -6 -15 -12 -14 -7 0 -24 -1 -38 -2
-23 -2 -24 -3 -5 -11 19 -8 19 -9 -3 -9 -15 -1 -26 -8 -29 -21 -3 -11 -9 -17
-14 -14 -5 3 -9 2 -9 -3 0 -17 17 -33 50 -47 34 -15 28 -20 -17 -19 -7 1 -13
-3 -13 -8 0 -5 7 -9 15 -9 8 0 15 -4 15 -10 0 -5 -7 -10 -15 -10 -8 0 -15 -5
-15 -10 0 -7 6 -7 20 0 15 8 21 6 30 -9 14 -27 13 -34 -5 -27 -25 9 -17 -10
10 -24 27 -14 23 -25 -10 -33 -18 -4 -18 -5 3 -6 26 -1 30 -18 5 -24 -16 -4
-16 -5 -2 -6 21 -1 34 -31 14 -31 -23 0 -28 -20 -9 -35 18 -13 18 -14 -1 -35
-18 -20 -18 -22 -2 -31 20 -11 22 -34 5 -45 -8 -5 -9 -2 -5 9 3 10 2 17 -3 17
-6 0 -10 -4 -10 -10 0 -5 -16 -10 -36 -10 -19 0 -33 -4 -30 -8 3 -5 19 -7 35
-6 38 3 40 -8 4 -24 -19 -8 -21 -10 -5 -6 30 7 28 -2 -5 -21 -16 -9 -20 -14
-11 -11 10 3 20 1 23 -4 4 -6 0 -10 -7 -10 -9 0 -9 -3 2 -10 11 -8 8 -9 -12
-4 -15 3 -35 1 -45 -6 -17 -11 -17 -11 0 -6 18 6 72 -22 63 -32 -3 -3 -11 0
-18 6 -7 5 -26 8 -43 4 l-30 -6 25 -7 25 -7 -22 -7 c-29 -9 -30 -25 -1 -17 14
3 19 2 14 -6 -4 -7 -16 -12 -27 -12 -10 0 -19 -4 -19 -9 0 -5 10 -7 22 -3 15
4 19 2 13 -7 -4 -8 -17 -10 -31 -7 -14 4 -24 2 -24 -4 0 -5 7 -10 15 -10 20 0
19 -16 -1 -24 -8 -3 -12 -2 -9 4 3 6 1 10 -4 10 -20 0 -11 -32 9 -37 11 -3 20
-9 20 -14 0 -5 -9 -9 -20 -9 -11 0 -20 -7 -20 -15 0 -8 -6 -12 -14 -9 -8 3
-17 0 -21 -6 -4 -6 -15 -8 -25 -5 -10 3 -22 0 -26 -6 -5 -9 -2 -10 9 -6 9 3
19 2 22 -3 4 -6 17 -7 30 -4 12 3 26 1 29 -5 5 -7 -3 -11 -18 -11 -15 0 -30
-8 -36 -20 -6 -11 -22 -23 -36 -26 -14 -4 -22 -9 -19 -12 8 -8 48 -9 55 -1 3
3 16 -1 30 -8 24 -12 24 -12 -13 -11 -22 1 -42 -3 -45 -9 -4 -5 -14 -13 -22
-16 -9 -3 -4 -6 13 -6 17 -1 27 -6 27 -17 0 -9 -5 -12 -12 -8 -7 5 -8 3 -4 -5
5 -7 14 -10 22 -7 18 7 18 -2 0 -20 -8 -8 -25 -14 -39 -14 -48 0 -37 -15 20
-27 32 -7 42 -11 23 -9 -19 2 -51 -2 -70 -10 l-35 -12 30 -3 30 -2 -35 -7
c-35 -7 -35 -7 -5 -9 23 -1 27 -3 15 -11 -8 -5 -15 -17 -15 -27 0 -11 -7 -17
-17 -15 -9 1 -19 -2 -23 -8 -3 -6 5 -11 19 -11 39 -2 44 -3 53 -12 4 -5 -9 -6
-29 -2 -31 6 -38 4 -38 -8 0 -9 6 -19 12 -23 9 -6 5 -10 -12 -15 -24 -6 -24
-6 10 -17 32 -11 30 -12 -29 -8 -41 3 -59 1 -50 -5 8 -5 25 -9 39 -9 20 0 22
-2 10 -10 -8 -5 -26 -10 -39 -10 -18 0 -22 -3 -14 -11 8 -8 17 -8 32 0 17 10
21 9 21 -4 0 -9 -9 -15 -22 -15 -13 0 -30 -5 -38 -10 -12 -7 -8 -10 15 -10
l30 0 -30 -20 c-21 -14 -25 -20 -12 -20 29 0 19 -20 -10 -21 -17 -1 -21 -3
-10 -6 9 -2 17 -11 17 -19 0 -17 46 -19 53 -1 4 9 6 9 6 0 1 -10 148 -13 701
-13 l700 0 0 1710 c0 1353 -3 1710 -13 1710 -8 0 -7 3 3 10 12 8 12 10 -3 16
-9 3 -17 11 -17 16 0 6 6 8 13 5 8 -3 14 1 14 9 0 7 -5 10 -10 7 -5 -3 -14 1
-19 8 -8 11 -9 10 -4 -3 6 -21 -5 -23 -22 -6 -9 9 -12 9 -12 0 0 -6 -6 -9 -14
-6 -10 4 -13 0 -9 -14 3 -14 -5 -26 -27 -42 -31 -22 -32 -22 -26 -2 4 11 2 23
-4 27 -6 4 -8 16 -4 27 4 14 2 18 -5 14 -6 -4 -11 -3 -11 3 0 5 5 11 12 13 6
2 9 9 7 16 -2 7 -16 -3 -32 -23z m13 -41 c0 -14 -3 -14 -15 -4 -8 7 -15 14
-15 16 0 2 7 4 15 4 8 0 15 -7 15 -16z m120 2 c0 -8 -6 -16 -14 -19 -10 -4
-12 0 -9 14 6 22 23 26 23 5z m-125 -45 c-3 -6 -11 -11 -16 -11 -5 0 -4 6 3
14 14 16 24 13 13 -3z m-71 -8 c5 -12 10 -13 18 -5 8 8 15 7 24 -6 8 -9 13
-21 13 -27 0 -5 -6 -1 -14 9 -8 11 -18 16 -22 13 -4 -4 -1 -13 5 -19 7 -7 12
-17 12 -22 0 -6 -4 -5 -9 3 -16 25 -49 24 -54 -2 -4 -19 -4 -18 -6 6 0 15 3
27 8 27 5 0 7 9 4 20 -6 24 12 27 21 3z m176 9 c0 -13 -12 -22 -22 -16 -10 6
-1 24 13 24 5 0 9 -4 9 -8z m40 -1 c0 -5 -7 -12 -16 -15 -14 -5 -15 -4 -4 9
14 17 20 19 20 6z m-70 -36 c0 -8 -4 -15 -8 -15 -5 0 -9 7 -9 15 0 8 4 15 9
15 4 0 8 -7 8 -15z m-135 -43 c-3 -3 -11 0 -18 7 -9 10 -8 11 6 5 10 -3 15 -9
12 -12z m-475 -29 c-1 -9 -50 -47 -50 -39 0 3 8 15 17 26 18 20 33 26 33 13z
m5 -53 c-24 -26 -32 -18 -9 9 10 11 20 18 23 16 2 -3 -4 -14 -14 -25z m-151
-125 c-4 -8 -8 -15 -10 -15 -2 0 -4 7 -4 15 0 8 4 15 10 15 5 0 7 -7 4 -15z
m-44 -19 c0 -3 -4 -8 -10 -11 -5 -3 -10 -1 -10 4 0 6 5 11 10 11 6 0 10 -2 10
-4z m-100 -75 c0 -11 -3 -22 -7 -24 -5 -3 -8 6 -8 19 0 13 3 24 8 24 4 0 7 -9
7 -19z m-126 -6 c-7 -16 -24 -21 -24 -6 0 8 7 13 27 20 1 1 0 -6 -3 -14z
m-114 -125 c0 -5 -4 -10 -10 -10 -5 0 -10 5 -10 10 0 6 5 10 10 10 6 0 10 -4
10 -10z m70 4 c0 -3 -6 -12 -14 -19 -12 -12 -15 -11 -19 5 -4 15 0 20 14 20
10 0 19 -3 19 -6z m36 -16 c5 -7 3 -8 -6 -3 -10 6 -12 4 -7 -8 3 -9 2 -19 -3
-22 -11 -7 -14 28 -3 38 9 9 11 9 19 -5z m-171 -48 c-3 -5 -11 -10 -16 -10 -6
0 -7 5 -4 10 3 6 11 10 16 10 6 0 7 -4 4 -10z m-150 -60 c3 -5 1 -10 -4 -10
-6 0 -11 5 -11 10 0 6 2 10 4 10 3 0 8 -4 11 -10z m-255 -20 c0 -5 -4 -10 -10
-10 -5 0 -10 5 -10 10 0 6 5 10 10 10 6 0 10 -4 10 -10z m315 0 c3 -5 1 -10
-4 -10 -6 0 -11 5 -11 10 0 6 2 10 4 10 3 0 8 -4 11 -10z m-55 -24 c0 -2 -11
-6 -25 -8 -14 -3 -25 -1 -25 3 0 5 11 9 25 9 14 0 25 -2 25 -4z m-240 -37 c0
-5 5 -7 10 -4 14 9 12 -9 -2 -24 -11 -10 -9 -11 6 -5 13 5 17 4 12 -4 -4 -7
-2 -12 5 -12 8 0 8 -4 -1 -15 -7 -8 -18 -15 -24 -14 -7 0 -6 2 2 6 19 7 14 23
-7 23 -15 0 -19 7 -19 30 1 27 18 45 18 19z m50 -10 c0 -6 7 -8 18 -4 14 5 15
4 4 -6 -10 -11 -15 -10 -29 4 -11 11 -13 17 -5 17 7 0 12 -5 12 -11z m177 5
c-3 -3 -12 -4 -19 -1 -8 3 -5 6 6 6 11 1 17 -2 13 -5z m-263 -52 c2 -4 -4 -8
-14 -8 -10 0 -16 4 -14 8 3 4 9 8 14 8 5 0 11 -4 14 -8z m-94 -16 c0 -11 -19
-15 -25 -6 -3 5 1 10 9 10 9 0 16 -2 16 -4z m95 -16 c-3 -5 -15 -10 -26 -10
-22 0 -24 -11 -6 -29 10 -10 9 -11 -5 -6 -10 4 -18 11 -18 16 0 5 -6 9 -14 9
-8 0 -17 4 -20 9 -4 5 3 7 14 4 11 -3 20 0 20 6 0 6 14 11 31 11 17 0 28 -4
24 -10z m129 2 c3 -5 -1 -9 -9 -9 -8 0 -12 4 -9 9 3 4 7 8 9 8 2 0 6 -4 9 -8z
m-94 -5 c0 -2 -9 -14 -20 -27 -11 -13 -20 -17 -20 -10 0 7 8 19 18 26 18 14
22 16 22 11z m29 -29 c-1 -31 -1 -31 -8 -8 -5 14 -6 28 -4 33 9 15 13 6 12
-25z m57 -40 c-10 -5 -23 -7 -31 -4 -8 3 -16 1 -19 -5 -2 -5 -3 -4 -2 3 2 7
13 12 24 10 12 -2 22 2 22 8 0 6 5 8 11 4 8 -5 6 -10 -5 -16z m-180 -30 c-19
-27 -20 -45 -3 -51 6 -2 4 -3 -5 -2 -10 2 -18 -1 -18 -6 0 -5 -4 -9 -10 -9 -5
0 -10 7 -10 15 0 8 5 15 11 15 6 0 8 9 4 23 -5 17 -4 19 4 7 9 -12 11 -11 11
8 0 13 -4 20 -10 17 -5 -3 -10 -1 -10 5 0 7 8 9 20 5 13 -4 20 -2 21 7 0 10 2
10 6 1 2 -7 -3 -23 -11 -35z m84 27 c0 -8 -2 -15 -4 -15 -2 0 -6 7 -10 15 -3
8 -1 15 4 15 6 0 10 -7 10 -15z m-132 -17 c-5 -16 -48 -24 -48 -10 0 11 17 20
38 21 8 1 12 -5 10 -11z m-32 -43 c-3 -10 1 -15 12 -16 14 0 14 -2 -3 -9 -27
-12 -43 -12 -25 0 12 8 12 10 1 10 -11 0 -11 3 -1 15 7 8 15 15 17 15 3 0 3
-7 -1 -15z m139 -4 c-3 -6 -11 -11 -16 -11 -5 0 -4 6 3 14 14 16 24 13 13 -3z
m75 -11 c-8 -5 -22 -10 -30 -10 -13 0 -13 1 0 10 8 5 22 10 30 10 13 0 13 -1
0 -10z m-117 -55 c-3 -9 -8 -14 -10 -11 -3 3 -2 9 2 15 9 16 15 13 8 -4z m897
-705 c0 -5 -4 -10 -10 -10 -5 0 -10 5 -10 10 0 6 5 10 10 10 6 0 10 -4 10 -10z
m-553 -57 c-3 -10 -5 -2 -5 17 0 19 2 27 5 18 2 -10 2 -26 0 -35z m503 -103
c0 -5 -7 -7 -15 -4 -8 4 -15 8 -15 10 0 2 7 4 15 4 8 0 15 -4 15 -10z m-47
-31 c4 -16 3 -18 -9 -8 -16 13 -19 29 -5 29 5 0 11 -9 14 -21z m-108 -99 c3
-5 1 -10 -4 -10 -6 0 -11 5 -11 10 0 6 2 10 4 10 3 0 8 -4 11 -10z m-1535 -70
c0 -5 -4 -10 -10 -10 -5 0 -10 5 -10 10 0 6 5 10 10 10 6 0 10 -4 10 -10z
m1597 -32 c-3 -8 -6 -5 -6 6 -1 11 2 17 5 13 3 -3 4 -12 1 -19z m-20 -4 c-3
-3 -12 -4 -19 -1 -8 3 -5 6 6 6 11 1 17 -2 13 -5z m-1614 -41 c-7 -2 -19 -2
-25 0 -7 3 -2 5 12 5 14 0 19 -2 13 -5z m1632 -33 c3 -5 1 -10 -4 -10 -6 0
-11 5 -11 10 0 6 2 10 4 10 3 0 8 -4 11 -10z m10 -70 c3 -5 1 -10 -4 -10 -6 0
-11 5 -11 10 0 6 2 10 4 10 3 0 8 -4 11 -10z m-1735 -30 c0 -5 -2 -10 -4 -10
-3 0 -8 5 -11 10 -3 6 -1 10 4 10 6 0 11 -4 11 -10z m1745 -10 c3 -5 1 -10 -4
-10 -6 0 -11 5 -11 10 0 6 2 10 4 10 3 0 8 -4 11 -10z m-1802 -37 c-7 -2 -21
-2 -30 0 -10 3 -4 5 12 5 17 0 24 -2 18 -5z m-17 -42 c0 -11 -4 -17 -8 -15 -4
3 -8 12 -8 20 0 8 4 14 8 14 4 0 8 -9 8 -19z m-56 -15 c0 -11 -19 -15 -25 -6
-3 5 1 10 9 10 9 0 16 -2 16 -4z m1247 -73 c-3 -10 -5 -4 -5 12 0 17 2 24 5
18 2 -7 2 -21 0 -30z m-1233 19 c2 -4 -11 -6 -30 -4 -19 2 -34 6 -34 8 0 8 59
4 64 -4z m-44 -53 c0 -5 5 -7 10 -4 6 3 10 1 10 -5 0 -7 -7 -9 -16 -6 -8 3
-22 -1 -31 -10 -8 -8 -18 -12 -21 -9 -6 6 28 43 41 44 4 1 7 -4 7 -10z m55
-99 c3 -5 1 -10 -4 -10 -6 0 -11 5 -11 10 0 6 2 10 4 10 3 0 8 -4 11 -10z
m-30 -40 c3 -5 1 -10 -4 -10 -6 0 -11 5 -11 10 0 6 2 10 4 10 3 0 8 -4 11 -10z
m42 -6 c-3 -3 -12 -4 -19 -1 -8 3 -5 6 6 6 11 1 17 -2 13 -5z m1183 -23 c0 -6
-4 -13 -10 -16 -5 -3 -10 1 -10 9 0 9 5 16 10 16 6 0 10 -4 10 -9z m514 -27
c3 -8 2 -12 -4 -9 -6 3 -10 10 -10 16 0 14 7 11 14 -7z m-54 -150 c0 -2 -15
-4 -32 -4 -23 0 -29 3 -19 9 12 8 51 4 51 -5z m-1905 -224 c3 -5 1 -10 -4 -10
-6 0 -11 5 -11 10 0 6 2 10 4 10 3 0 8 -4 11 -10z m1812 -16 c-3 -3 -12 -4
-19 -1 -8 3 -5 6 6 6 11 1 17 -2 13 -5z m-10 -30 c-3 -3 -12 -4 -19 -1 -8 3
-5 6 6 6 11 1 17 -2 13 -5z m-60 -205 c-14 -8 -22 -8 -30 0 -8 8 -3 11 19 11
25 -1 27 -2 11 -11z m-57 -29 c0 -5 -4 -10 -10 -10 -5 0 -10 5 -10 10 0 6 5
10 10 10 6 0 10 -4 10 -10z"/>
<path d="M5960 3516 c0 -2 8 -10 18 -17 15 -13 16 -12 3 4 -13 16 -21 21 -21
13z"/>
<path d="M6180 3468 c0 -9 5 -20 10 -23 13 -8 13 5 0 25 -8 13 -10 13 -10 -2z"/>
<path d="M5641 3373 c-18 -20 -6 -29 14 -10 8 9 12 18 8 20 -5 3 -14 -2 -22
-10z"/>
<path d="M3197 3269 c7 -7 15 -10 18 -7 3 3 -2 9 -12 12 -14 6 -15 5 -6 -5z"/>
<path d="M3163 3244 c0 -16 13 -19 21 -5 3 5 0 11 -7 14 -8 3 -14 -1 -14 -9z"/>
<path d="M3305 3241 c-3 -5 -2 -12 3 -15 5 -3 9 1 9 9 0 17 -3 19 -12 6z"/>
<path d="M3226 3205 c-3 -8 -1 -15 4 -15 6 0 10 7 10 15 0 8 -2 15 -4 15 -2 0
-6 -7 -10 -15z"/>
<path d="M5381 3204 c0 -11 3 -14 6 -6 3 7 2 16 -1 19 -3 4 -6 -2 -5 -13z"/>
<path d="M5411 3171 c-9 -6 -10 -11 -2 -15 6 -4 11 -2 11 4 0 6 5 8 10 5 6 -3
10 -1 10 4 0 13 -10 14 -29 2z"/>
<path d="M5370 3161 c0 -5 5 -13 10 -16 6 -3 10 -2 10 4 0 5 -4 13 -10 16 -5
3 -10 2 -10 -4z"/>
<path d="M3342 3140 c7 -11 16 -20 20 -20 15 0 8 15 -12 28 -19 12 -20 11 -8
-8z"/>
<path d="M3393 3134 c-20 -21 -16 -42 3 -22 9 9 15 21 13 26 -2 6 -9 4 -16 -4z"/>
<path d="M3305 3130 c4 -6 11 -8 16 -5 14 9 11 15 -7 15 -8 0 -12 -5 -9 -10z"/>
<path d="M5293 3128 c4 -10 2 -18 -3 -18 -5 0 -12 -9 -15 -20 -4 -11 -11 -17
-17 -14 -6 4 -14 0 -19 -7 -12 -19 -11 -29 2 -29 5 0 8 4 5 9 -3 5 3 11 13 14
10 2 27 17 36 31 15 22 16 29 5 39 -10 10 -12 8 -7 -5z"/>
<path d="M5240 3105 c0 -9 6 -12 15 -9 8 4 15 7 15 9 0 2 -7 5 -15 9 -9 3 -15
0 -15 -9z"/>
<path d="M5316 3101 c-20 -22 -21 -32 -1 -25 8 4 15 14 15 23 0 14 2 14 10 1
6 -9 10 -10 10 -3 0 21 -17 23 -34 4z"/>
<path d="M5190 3095 c0 -9 6 -12 15 -9 8 4 15 7 15 9 0 2 -7 5 -15 9 -9 3 -15
0 -15 -9z"/>
<path d="M5038 3073 c7 -3 16 -2 19 1 4 3 -2 6 -13 5 -11 0 -14 -3 -6 -6z"/>
<path d="M3940 3007 c0 -7 -19 -24 -42 -37 -24 -13 -47 -29 -51 -37 -4 -7 -15
-13 -22 -13 -8 0 -15 -5 -15 -11 0 -6 -7 -9 -15 -5 -12 4 -13 2 -2 -14 15 -25
24 -25 32 -1 3 10 33 37 67 60 55 37 82 71 57 71 -5 0 -9 -6 -9 -13z"/>
<path d="M3551 2984 c0 -11 3 -14 6 -6 3 7 2 16 -1 19 -3 4 -6 -2 -5 -13z"/>
<path d="M4925 2990 c3 -5 8 -10 11 -10 2 0 4 5 4 10 0 6 -5 10 -11 10 -5 0
-7 -4 -4 -10z"/>
<path d="M5040 2990 c0 -5 5 -10 10 -10 6 0 10 5 10 10 0 6 -4 10 -10 10 -5 0
-10 -4 -10 -10z"/>
<path d="M4955 2980 c3 -5 8 -10 11 -10 2 0 4 5 4 10 0 6 -5 10 -11 10 -5 0
-7 -4 -4 -10z"/>
<path d="M4240 2976 c0 -2 7 -7 16 -10 8 -3 12 -2 9 4 -6 10 -25 14 -25 6z"/>
<path d="M4985 2961 c3 -5 -5 -12 -17 -14 -13 -2 1 -3 30 -2 54 3 71 9 58 22
-4 4 -11 2 -15 -5 -6 -10 -15 -10 -35 -2 -15 5 -25 6 -21 1z"/>
<path d="M5105 2960 c3 -5 8 -10 11 -10 2 0 4 5 4 10 0 6 -5 10 -11 10 -5 0
-7 -4 -4 -10z"/>
<path d="M3815 2950 c-3 -5 -1 -10 4 -10 6 0 11 5 11 10 0 6 -2 10 -4 10 -3 0
-8 -4 -11 -10z"/>
<path d="M4845 2950 c-3 -5 1 -10 10 -10 9 0 13 5 10 10 -3 6 -8 10 -10 10 -2
0 -7 -4 -10 -10z"/>
<path d="M3759 2913 l-24 -26 33 23 c33 25 38 30 24 30 -5 0 -19 -12 -33 -27z"/>
<path d="M4830 2910 c-9 -17 -8 -20 12 -20 17 0 19 3 9 9 -7 5 -10 14 -7 20 4
6 5 11 2 11 -3 0 -10 -9 -16 -20z"/>
<path d="M4880 2920 c0 -5 5 -10 11 -10 5 0 7 5 4 10 -3 6 -8 10 -11 10 -2 0
-4 -4 -4 -10z"/>
<path d="M4910 2920 c0 -5 5 -10 10 -10 6 0 10 5 10 10 0 6 -4 10 -10 10 -5 0
-10 -4 -10 -10z"/>
<path d="M4980 2919 c0 -5 5 -7 10 -4 6 3 10 8 10 11 0 2 -4 4 -10 4 -5 0 -10
-5 -10 -11z"/>
<path d="M4340 2910 c8 -5 20 -10 25 -10 6 0 3 5 -5 10 -8 5 -19 10 -25 10 -5
0 -3 -5 5 -10z"/>
<path d="M4471 2894 c0 -11 3 -14 6 -6 3 7 2 16 -1 19 -3 4 -6 -2 -5 -13z"/>
<path d="M4590 2876 c0 -2 7 -7 16 -10 8 -3 12 -2 9 4 -6 10 -25 14 -25 6z"/>
<path d="M4509 2849 l-24 -20 30 17 c39 24 40 24 28 24 -6 0 -21 -9 -34 -21z"/>
<path d="M4736 2856 c3 -8 13 -17 22 -21 13 -5 13 -2 -3 15 -21 24 -26 25 -19
6z"/>
<path d="M4410 2844 c0 -1 6 -7 14 -13 10 -9 15 -8 19 3 4 10 0 14 -14 13 -10
-1 -19 -2 -19 -3z"/>
<path d="M4596 2835 c-11 -8 -16 -15 -10 -15 5 0 18 7 28 15 11 8 16 15 10 15
-5 0 -18 -7 -28 -15z"/>
<path d="M4520 2829 c0 -5 5 -7 10 -4 6 3 10 8 10 11 0 2 -4 4 -10 4 -5 0 -10
-5 -10 -11z"/>
<path d="M4698 2821 c5 -14 4 -14 -13 -1 -18 15 -18 14 0 -17 15 -25 16 -35 6
-46 -8 -10 -9 -17 -1 -22 5 -3 14 5 19 18 6 14 15 28 20 32 6 3 11 16 11 28 0
17 -2 19 -9 7 -6 -8 -7 -18 -5 -22 3 -4 1 -8 -5 -8 -15 0 -23 18 -11 25 15 9
12 22 -4 22 -9 0 -12 -6 -8 -16z"/>
<path d="M4550 2820 c0 -5 5 -10 10 -10 6 0 10 5 10 10 0 6 -4 10 -10 10 -5 0
-10 -4 -10 -10z"/>
<path d="M4618 2814 c6 -3 10 -9 7 -14 -3 -4 2 -11 11 -14 8 -3 12 -2 9 4 -3
6 -2 10 4 10 5 0 11 -6 14 -12 2 -7 7 -11 10 -8 11 11 -9 28 -38 34 -17 3 -24
3 -17 0z"/>
<path d="M4575 2800 c-3 -6 1 -7 9 -4 18 7 21 14 7 14 -6 0 -13 -4 -16 -10z"/>
<path d="M4415 2761 c3 -5 1 -12 -5 -16 -16 -10 -12 -25 5 -19 17 7 21 44 4
44 -5 0 -8 -4 -4 -9z"/>
<path d="M5464 1996 c-3 -8 -4 -23 -2 -33 3 -11 6 -6 9 15 6 34 2 42 -7 18z"/>
<path d="M5440 1879 c0 -5 5 -7 10 -4 6 3 10 8 10 11 0 2 -4 4 -10 4 -5 0 -10
-5 -10 -11z"/>
<path d="M5335 1700 c-3 -6 1 -7 9 -4 18 7 21 14 7 14 -6 0 -13 -4 -16 -10z"/>
<path d="M3710 1660 c0 -5 5 -10 11 -10 5 0 7 5 4 10 -3 6 -8 10 -11 10 -2 0
-4 -4 -4 -10z"/>
<path d="M4827 1419 c4 -13 8 -18 11 -10 2 7 -1 18 -6 23 -8 8 -9 4 -5 -13z"/>
<path d="M3455 1210 c3 -5 8 -10 11 -10 2 0 4 5 4 10 0 6 -5 10 -11 10 -5 0
-7 -4 -4 -10z"/>
<path d="M4770 1211 c0 -6 4 -13 10 -16 6 -3 7 1 4 9 -7 18 -14 21 -14 7z"/>
<path d="M5210 1210 c-13 -8 -12 -10 3 -10 9 0 17 5 17 10 0 12 -1 12 -20 0z"/>
<path d="M3335 1090 c-3 -5 -1 -10 4 -10 6 0 11 5 11 10 0 6 -2 10 -4 10 -3 0
-8 -4 -11 -10z"/>
<path d="M3330 1056 c0 -9 5 -16 10 -16 6 0 10 4 10 9 0 6 -4 13 -10 16 -5 3
-10 -1 -10 -9z"/>
<path d="M4727 1025 c-4 -8 -3 -16 1 -19 4 -3 9 4 9 15 2 23 -3 25 -10 4z"/>
<path d="M3330 930 c0 -5 5 -10 10 -10 6 0 10 5 10 10 0 6 -4 10 -10 10 -5 0
-10 -4 -10 -10z"/>
<path d="M2412 819 c2 -6 8 -10 13 -10 5 0 11 4 13 10 2 6 -4 11 -13 11 -9 0
-15 -5 -13 -11z"/>
<path d="M3303 794 c-6 -13 -7 -24 -2 -24 5 0 9 4 9 9 0 5 7 11 17 13 14 3 14
5 2 15 -11 9 -17 7 -26 -13z"/>
<path d="M4670 719 c0 -5 5 -7 10 -4 6 3 10 8 10 11 0 2 -4 4 -10 4 -5 0 -10
-5 -10 -11z"/>
<path d="M5065 691 c-3 -5 -1 -12 5 -16 5 -3 10 1 10 9 0 18 -6 21 -15 7z"/>
<path d="M2570 673 c0 -12 4 -23 10 -25 18 -6 -5 -25 -39 -31 -29 -6 -32 -5
-21 8 7 9 21 13 31 10 11 -4 19 -2 19 4 0 18 -27 12 -65 -13 l-35 -24 43 2
c85 6 98 21 68 73 -9 16 -10 16 -11 -4z"/>
<path d="M5042 670 c0 -14 2 -19 5 -12 2 6 2 18 0 25 -3 6 -5 1 -5 -13z"/>
<path d="M2135 670 c-4 -6 -5 -12 -4 -14 3 -2 43 -21 73 -34 5 -3 5 1 0 9 -5
8 -9 20 -10 27 -4 22 -14 27 -14 7 0 -17 -1 -17 -19 -1 -13 12 -21 14 -26 6z"/>
<path d="M2355 670 c-3 -6 1 -13 10 -16 21 -9 26 -2 10 13 -9 8 -16 9 -20 3z"/>
<path d="M2218 653 c7 -3 16 -2 19 1 4 3 -2 6 -13 5 -11 0 -14 -3 -6 -6z"/>
<path d="M2280 632 c6 -13 14 -21 18 -18 3 4 -2 14 -12 24 -18 16 -18 16 -6
-6z"/>
<path d="M2359 618 c-12 -23 -12 -23 10 -4 23 21 26 26 11 26 -5 0 -15 -10
-21 -22z"/>
<path d="M2430 620 c0 -5 5 -10 11 -10 5 0 7 5 4 10 -3 6 -8 10 -11 10 -2 0
-4 -4 -4 -10z"/>
<path d="M1590 610 c0 -5 5 -10 11 -10 5 0 7 5 4 10 -3 6 -8 10 -11 10 -2 0
-4 -4 -4 -10z"/>
<path d="M2240 605 c0 -8 4 -15 10 -15 5 0 7 7 4 15 -4 8 -8 15 -10 15 -2 0
-4 -7 -4 -15z"/>
<path d="M2328 598 c8 -9 11 -22 7 -28 -3 -5 -1 -10 4 -10 17 0 13 26 -6 41
-16 13 -17 12 -5 -3z"/>
<path d="M4995 600 c3 -5 8 -10 11 -10 2 0 4 5 4 10 0 6 -5 10 -11 10 -5 0 -7
-4 -4 -10z"/>
<path d="M2502 570 c0 -14 2 -19 5 -12 2 6 2 18 0 25 -3 6 -5 1 -5 -13z"/>
<path d="M2550 581 c0 -5 -8 -11 -17 -13 -16 -3 -15 -6 5 -16 24 -14 43 -9 41
11 0 9 -2 9 -6 0 -8 -21 -25 -14 -18 7 3 11 4 20 1 20 -3 0 -6 -4 -6 -9z"/>
<path d="M3310 580 c0 -5 4 -10 9 -10 6 0 13 5 16 10 3 6 -1 10 -9 10 -9 0
-16 -4 -16 -10z"/>
<path d="M2462 566 c7 -8 15 -12 17 -11 5 6 -10 25 -20 25 -5 0 -4 -6 3 -14z"/>
<path d="M2625 570 c3 -5 11 -10 16 -10 6 0 7 5 4 10 -3 6 -11 10 -16 10 -6 0
-7 -4 -4 -10z"/>
<path d="M3256 555 c4 -8 8 -15 10 -15 2 0 4 7 4 15 0 8 -4 15 -10 15 -5 0 -7
-7 -4 -15z"/>
<path d="M2410 526 c0 -2 9 -6 20 -9 11 -3 20 -1 20 4 0 5 -9 9 -20 9 -11 0
-20 -2 -20 -4z"/>
<path d="M2148 512 c-10 -2 -18 -8 -18 -13 0 -11 11 -11 30 1 18 11 11 18 -12
12z"/>
<path d="M4968 513 c7 -3 16 -2 19 1 4 3 -2 6 -13 5 -11 0 -14 -3 -6 -6z"/>
<path d="M2615 489 c-4 -6 -5 -13 -2 -16 7 -7 27 6 27 18 0 12 -17 12 -25 -2z"/>
<path d="M4950 490 c0 -5 5 -10 11 -10 5 0 7 5 4 10 -3 6 -8 10 -11 10 -2 0
-4 -4 -4 -10z"/>
<path d="M2516 478 c3 -5 10 -6 15 -3 13 9 11 12 -6 12 -8 0 -12 -4 -9 -9z"/>
<path d="M2457 466 c-4 -10 -1 -13 8 -9 8 3 12 9 9 14 -7 12 -11 11 -17 -5z"/>
<path d="M2650 460 c0 -5 5 -10 11 -10 5 0 7 5 4 10 -3 6 -8 10 -11 10 -2 0
-4 -4 -4 -10z"/>
<path d="M4970 440 c0 -5 11 -10 25 -10 14 0 25 5 25 10 0 6 -11 10 -25 10
-14 0 -25 -4 -25 -10z"/>
<path d="M2622 425 c-7 -8 -9 -15 -4 -15 5 0 15 7 22 15 16 19 -1 19 -18 0z"/>
<path d="M2610 380 c-18 -12 -2 -12 25 0 13 6 15 9 5 9 -8 0 -22 -4 -30 -9z"/>
<path d="M2055 370 c-3 -5 -1 -10 4 -10 6 0 11 5 11 10 0 6 -2 10 -4 10 -3 0
-8 -4 -11 -10z"/>
<path d="M4600 344 c0 -8 5 -12 10 -9 6 4 8 11 5 16 -9 14 -15 11 -15 -7z"/>
<path d="M4838 273 c12 -2 30 -2 40 0 9 3 -1 5 -23 4 -22 0 -30 -2 -17 -4z"/>
<path d="M4638 253 c7 -3 16 -2 19 1 4 3 -2 6 -13 5 -11 0 -14 -3 -6 -6z"/>
<path d="M1960 170 c0 -5 5 -10 11 -10 5 0 7 5 4 10 -3 6 -8 10 -11 10 -2 0
-4 -4 -4 -10z"/>
<path d="M1280 86 c0 -9 5 -16 10 -16 6 0 10 4 10 9 0 6 -4 13 -10 16 -5 3
-10 -1 -10 -9z"/>
<path d="M1328 93 c7 -3 16 -2 19 1 4 3 -2 6 -13 5 -11 0 -14 -3 -6 -6z"/>
<path d="M1298 53 c7 -3 16 -2 19 1 4 3 -2 6 -13 5 -11 0 -14 -3 -6 -6z"/>
</g>
</svg>
